<?xml version="1.0" encoding="utf-8"?>
<!-- Generator: Adobe Illustrator 15.0.0, SVG Export Plug-In . SVG Version: 6.00 Build 0)  -->
<!DOCTYPE svg PUBLIC "-//W3C//DTD SVG 1.1//EN" "http://www.w3.org/Graphics/SVG/1.1/DTD/svg11.dtd">
<svg version="1.1" xmlns="http://www.w3.org/2000/svg" xmlns:xlink="http://www.w3.org/1999/xlink" x="0px" y="0px" width="367px"
	 height="142px" viewBox="1556.719 13.698 367 142" enable-background="new 1556.719 13.698 367 142" xml:space="preserve">
<g id="Layer_1">
	<g>
		<g>
			<path d="M738.698,76.799c3.635,0,6.592,2.957,6.592,6.592s-2.957,6.592-6.592,6.592c-3.633,0-6.592-2.957-6.592-6.592
				S735.064,76.799,738.698,76.799 M738.698,72.09c-6.242,0-11.3,5.061-11.3,11.301s5.058,11.301,11.3,11.301
				c6.241,0,11.301-5.061,11.301-11.301S744.939,72.09,738.698,72.09L738.698,72.09z"/>
		</g>
	</g>
	<g>
		<g>
			<path d="M418.968,103.098c3.635,0,6.593,2.957,6.593,6.592c0,3.634-2.958,6.592-6.593,6.592s-6.592-2.958-6.592-6.592
				C412.376,106.055,415.333,103.098,418.968,103.098 M418.968,98.389c-6.24,0-11.3,5.061-11.3,11.301s5.06,11.301,11.3,11.301
				c6.243,0,11.301-5.061,11.301-11.301S425.21,98.389,418.968,98.389L418.968,98.389z"/>
		</g>
	</g>
	<path fill="none" stroke="#000000" stroke-width="4.72" stroke-miterlimit="10" d="M425.718,104.385
		c20.672-15.206,46.267-24.361,73.895-24.312h14.359c37.211,0,70.702-16.424,93.425-40.946"/>
	<g>
		<g>
			<path d="M568.743,126.431c1.76,0.002,3.414,0.687,4.66,1.933c2.569,2.57,2.569,6.754,0,9.324c-1.244,1.244-2.9,1.929-4.66,1.929
				s-3.416-0.687-4.662-1.929c-2.568-2.57-2.568-6.754,0.002-9.326C565.325,127.117,566.98,126.433,568.743,126.431 M568.74,121.723
				c-2.892,0.002-5.785,1.104-7.987,3.312c-4.414,4.414-4.414,11.566,0,15.982c2.205,2.207,5.098,3.311,7.989,3.311
				c2.89,0,5.784-1.104,7.989-3.311c4.414-4.416,4.414-11.568-0.001-15.982C574.524,122.824,571.632,121.723,568.74,121.723
				L568.74,121.723z"/>
		</g>
	</g>
	<path fill="none" stroke="#000000" stroke-width="4.72" stroke-miterlimit="10" d="M568.742,123.609
		c1.88-12.333,7.529-24.272,17.04-33.753l4.526-4.524c12.788-12.788,18.655-29.893,18.035-46.132"/>
	<g>
		<g>
			<path d="M508.581,123.815c1.117,0,2.133,0.662,2.584,1.685c0.63,1.427-0.02,3.096-1.441,3.725
				c-0.364,0.163-0.746,0.243-1.138,0.243c-1.121,0-2.138-0.66-2.589-1.685c-0.629-1.427,0.019-3.097,1.442-3.726
				c0.364-0.16,0.747-0.242,1.138-0.242H508.581 M508.581,120.99c-0.002,0-0.002,0-0.002,0c-0.764,0-1.538,0.153-2.278,0.481
				c-2.854,1.261-4.146,4.597-2.887,7.451c0.932,2.113,3.003,3.37,5.173,3.37c0.762,0,1.535-0.155,2.277-0.483
				c2.854-1.262,4.146-4.597,2.885-7.45C512.817,122.247,510.749,120.99,508.581,120.99L508.581,120.99z"/>
		</g>
	</g>
	<circle cx="608.387" cy="34.7" r="4.5"/>
	<path fill="none" stroke="#000000" stroke-width="2.36" stroke-miterlimit="10" d="M510.642,121.725
		c8.185-15.865,21.636-29.111,39.22-36.84l15.821-7.338c15.091-6.66,30.728-19.32,42.079-38.376"/>
	<path fill="none" stroke="#000000" stroke-width="4.72" stroke-miterlimit="10" d="M609.059,39.166
		c13.072,13.727,32.029,22.828,53.102,22.828h25.901c15.912-0.028,30.655,5.246,42.562,14.004"/>
	<g>
		<path d="M190.541,100.258c2.738,0,4.957,2.219,4.957,4.956s-2.218,4.956-4.957,4.956c-2.736,0-4.956-2.219-4.956-4.956
			S187.804,100.258,190.541,100.258 M190.541,95.538c-5.335,0-9.676,4.341-9.676,9.676s4.341,9.675,9.676,9.675
			s9.677-4.34,9.677-9.675S195.876,95.538,190.541,95.538L190.541,95.538z"/>
	</g>
	<g>
		<path d="M281.178,55.287c2.735,0,4.954,2.219,4.954,4.956s-2.219,4.956-4.954,4.956c-2.738,0-4.957-2.219-4.957-4.956
			S278.439,55.287,281.178,55.287 M281.178,50.567c-5.337,0-9.678,4.342-9.678,9.677s4.341,9.676,9.678,9.676
			c5.335,0,9.675-4.341,9.675-9.676S286.513,50.567,281.178,50.567L281.178,50.567z"/>
	</g>
	<g>
		<path d="M359.566,25.389c2.735,0,4.955,2.218,4.955,4.956c0,2.737-2.22,4.956-4.955,4.956c-2.738,0-4.957-2.218-4.957-4.956
			S356.828,25.389,359.566,25.389 M359.566,20.669c-5.336,0-9.677,4.341-9.677,9.676s4.341,9.676,9.677,9.676
			c5.335,0,9.675-4.341,9.675-9.676S364.901,20.669,359.566,20.669L359.566,20.669z"/>
	</g>
	<path fill="none" stroke="#000000" stroke-width="4.72" stroke-miterlimit="10" d="M352.97,32.533
		c-22.922,7.103-47.68,9.623-73.065,6.608l-9.106-1.081c-52.497-6.232-102.301,11.194-138.748,43.883
		c-18.24,16.361-33.137,36.546-43.35,59.498"/>
	<path fill="none" stroke="#000000" stroke-width="4.72" stroke-miterlimit="10" d="M275.78,64.725
		c-17.448,14.119-39.674,22.571-63.893,22.571h-44.575c-20.746,0-40.029,6.202-56.1,16.854"/>
	<circle cx="89.07" cy="141.811" r="4.5"/>
	<path fill="none" stroke="#000000" stroke-width="2.36" stroke-miterlimit="10" d="M219.427,61.363
		c-8.704,7.002-19.771,11.189-31.825,11.189h-24.647c-10.524,0-20.299,3.192-28.404,8.664"/>
	<g>
		<path d="M222.246,56.547c1.369,0,2.479,1.11,2.479,2.479c0,1.369-1.109,2.479-2.479,2.479s-2.478-1.109-2.478-2.479
			C219.768,57.657,220.877,56.547,222.246,56.547 M222.246,54.188c-2.667,0-4.838,2.17-4.838,4.838c0,2.667,2.17,4.839,4.838,4.839
			s4.838-2.171,4.838-4.839S224.914,54.188,222.246,54.188L222.246,54.188z"/>
	</g>
	<path fill="none" stroke="#000000" stroke-width="4.72" stroke-miterlimit="10" d="M185.172,109.881
		c-7.46,5.515-16.691,8.772-26.691,8.772h-36.579c-9.634,0-18.554,3.025-25.865,8.179"/>
	<g>
		<path d="M1872.924,53.947c2.494,0,4.643,1.877,4.92,4.415c0.299,2.721-1.662,5.167-4.385,5.467
			c-0.185,0.021-0.368,0.03-0.549,0.03c-2.493,0-4.64-1.878-4.918-4.414c-0.299-2.721,1.662-5.169,4.383-5.468
			C1872.558,53.957,1872.742,53.947,1872.924,53.947 M1872.924,49.227c-0.354,0-0.712,0.02-1.063,0.058
			c-5.302,0.583-9.143,5.372-8.56,10.676c0.539,4.914,4.67,8.618,9.609,8.618c0.354,0,0.713-0.02,1.066-0.059
			c5.302-0.583,9.142-5.372,8.559-10.674C1881.996,52.933,1877.863,49.227,1872.924,49.227L1872.924,49.227z"/>
	</g>
	<g>
		<path d="M1872.932,82.957c0.434,0,0.873,0.057,1.312,0.177c2.639,0.72,4.192,3.446,3.474,6.086
			c-0.604,2.204-2.601,3.651-4.779,3.651c-0.432,0-0.871-0.058-1.308-0.176c-2.644-0.724-4.198-3.447-3.478-6.087
			C1868.755,84.406,1870.753,82.957,1872.932,82.957 M1872.932,78.238L1872.932,78.238c-4.349,0-8.186,2.931-9.332,7.127
			c-1.407,5.145,1.637,10.476,6.784,11.884c0.836,0.228,1.693,0.343,2.553,0.343c4.345,0,8.184-2.929,9.331-7.123
			c1.405-5.154-1.639-10.483-6.783-11.888C1874.653,78.353,1873.793,78.238,1872.932,78.238L1872.932,78.238z"/>
	</g>
	<g>
		<path d="M1872.993,111.918c0.51,0,1.028,0.078,1.54,0.246c2.6,0.85,4.021,3.646,3.171,6.25c-0.683,2.09-2.624,3.418-4.71,3.418
			c-0.51,0-1.027-0.078-1.538-0.246c-2.604-0.851-4.023-3.646-3.175-6.248C1868.964,113.245,1870.905,111.918,1872.993,111.918
			 M1872.993,107.198L1872.993,107.198c-4.199,0-7.896,2.684-9.199,6.676c-0.802,2.457-0.599,5.078,0.571,7.383
			c1.171,2.305,3.169,4.016,5.627,4.818c0.972,0.315,1.982,0.479,3.002,0.479c4.197,0,7.895-2.682,9.197-6.674
			c0.803-2.456,0.6-5.079-0.57-7.385c-1.17-2.305-3.166-4.016-5.621-4.816C1875.023,107.358,1874.013,107.198,1872.993,107.198
			L1872.993,107.198z"/>
	</g>
	<path fill="none" stroke="#000000" stroke-width="4.72" stroke-miterlimit="10" d="M1866.808,90.576
		c-20.793,8.449-44.518,10.093-67.692,3.068l-30.226-9.344c-19.854-6.017-40.106-5.674-58.577-0.141"/>
	<circle cx="1581.81" cy="145.837" r="4.131"/>
	<path fill="none" stroke="#000000" stroke-width="2.36" stroke-miterlimit="10" d="M1871.576,32.895
		c-5.378,9.792-14.014,17.881-25.156,22.477l-6.704,2.974c-9.729,4.013-17.551,10.689-22.956,18.836"/>
	<g>
		<path d="M1872.96,27.428c0.974,0,1.897,0.579,2.292,1.535c0.521,1.266-0.081,2.713-1.347,3.235
			c-0.31,0.127-0.629,0.188-0.943,0.188c-0.974,0-1.896-0.579-2.291-1.535c-0.521-1.265,0.08-2.714,1.346-3.235
			C1872.325,27.489,1872.645,27.428,1872.96,27.428 M1872.96,25.068L1872.96,25.068c-0.635,0-1.255,0.124-1.844,0.366
			c-1.194,0.492-2.126,1.421-2.622,2.615s-0.498,2.509-0.004,3.704c0.747,1.816,2.503,2.994,4.472,2.994
			c0.636,0,1.255-0.123,1.845-0.366c2.463-1.017,3.643-3.85,2.629-6.314C1876.681,26.244,1874.927,25.068,1872.96,25.068
			L1872.96,25.068z"/>
	</g>
	<path fill="none" stroke="#000000" stroke-width="4.72" stroke-miterlimit="10" d="M1868.333,63.81
		c-6.96,6.135-15.879,10.17-25.845,11.027l-36.442,3.13c-9.598,0.825-18.228,4.604-25.07,10.362"/>
	<g>
		<path d="M960.339,72.472c0,0.231-0.016,0.463-0.049,0.698c-0.383,2.709-2.887,4.596-5.6,4.215c-2.476-0.35-4.264-2.471-4.264-4.9
			c0-0.229,0.016-0.464,0.049-0.698c0.383-2.711,2.89-4.601,5.599-4.217C958.55,67.916,960.339,70.039,960.339,72.472
			 M965.057,72.472L965.057,72.472c0-4.796-3.582-8.913-8.332-9.577c-2.551-0.361-5.099,0.296-7.165,1.854
			c-2.062,1.554-3.398,3.818-3.76,6.378c-0.062,0.448-0.096,0.906-0.096,1.358c0,4.787,3.579,8.904,8.324,9.574
			c5.283,0.742,10.187-2.949,10.932-8.229C965.027,73.379,965.057,72.924,965.057,72.472L965.057,72.472z"/>
	</g>
	<path fill="none" stroke="#000000" stroke-width="2.36" stroke-miterlimit="10" d="M969.593,63.751
		c10.598-3.53,22.431-3.601,33.729,0.598l2.508,0.897c9.867,3.669,20.141,4.082,29.642,1.777"/>
	<g>
		<path d="M966.482,67.414c-0.396,0.058-0.813,0.02-1.215-0.13c-1.279-0.476-1.934-1.907-1.456-3.188
			c0.326-0.881,1.103-1.468,1.973-1.593c0.396-0.057,0.812-0.017,1.215,0.133c1.28,0.476,1.938,1.903,1.457,3.188
			C968.13,66.705,967.353,67.289,966.482,67.414 M966.818,69.75L966.818,69.75c1.759-0.252,3.233-1.442,3.851-3.105
			c0.45-1.204,0.404-2.52-0.134-3.695c-0.536-1.178-1.5-2.074-2.714-2.523c-0.756-0.281-1.576-0.37-2.372-0.256
			c-1.757,0.253-3.231,1.442-3.85,3.105c-0.929,2.5,0.348,5.291,2.847,6.221C965.203,69.777,966.024,69.865,966.818,69.75
			L966.818,69.75z"/>
	</g>
	<path fill="none" stroke="#000000" stroke-width="4.72" stroke-linecap="round" stroke-miterlimit="10" d="M959.254,78.446
		c4.42,8.156,6.358,17.752,4.961,27.656l-1.051,7.17c-1.345,9.539,0.406,18.793,4.486,26.754"/>
	<g>
		<path d="M1129.84,94.193c0.658,0,1.326,0.132,1.97,0.41c2.511,1.087,3.663,4.006,2.576,6.517c-0.81,1.87-2.635,2.987-4.551,2.987
			c-0.657,0-1.324-0.132-1.966-0.409c-2.514-1.09-3.667-4.006-2.579-6.519C1126.1,95.31,1127.924,94.193,1129.84,94.193
			 M1129.84,89.472L1129.84,89.472c-3.858,0-7.345,2.288-8.88,5.83c-2.121,4.896,0.137,10.604,5.031,12.727
			c1.224,0.529,2.517,0.8,3.844,0.8c3.861,0,7.348-2.289,8.882-5.832c2.12-4.898-0.138-10.605-5.032-12.725
			C1132.462,89.74,1131.168,89.472,1129.84,89.472L1129.84,89.472z"/>
	</g>
	<path fill="none" stroke="#000000" stroke-width="4.72" stroke-miterlimit="10" d="M1122.917,98.534
		c-23.855-2.593-47.576-10.12-69.674-22.977l-7.926-4.61c-45.694-26.587-98.322-30.392-144.76-14.882
		c-23.24,7.764-44.933,20.362-63.427,37.365"/>
	<g>
		<g>
			<g>
				<path d="M801.253,60.806c2.238,0,4.269,1.522,4.819,3.794c0.648,2.666-0.984,5.354-3.651,6
					c-0.395,0.097-0.789,0.143-1.178,0.143c-2.237,0-4.268-1.523-4.821-3.794c-0.646-2.666,0.987-5.354,3.652-6
					C800.469,60.853,800.864,60.806,801.253,60.806 M801.253,56.117c-0.768,0-1.536,0.092-2.286,0.273
					c-5.173,1.259-8.357,6.49-7.102,11.664c1.059,4.346,4.915,7.376,9.378,7.376c0.768,0,1.536-0.092,2.285-0.273
					c2.507-0.609,4.627-2.159,5.968-4.363s1.742-4.797,1.132-7.304C809.574,59.151,805.719,56.117,801.253,56.117L801.253,56.117z"
					/>
			</g>
		</g>
		<path fill="none" stroke="#000000" stroke-width="4.689" stroke-miterlimit="10" d="M808.629,68.048
			c67.119,31.735,145.157,41.526,222.991,22.594l4.278-1.325c19.432-4.728,38.902-3.312,56.382,3.004"/>
	</g>
	<circle cx="837.13" cy="93.431" r="4.13"/>
	<g>
		<path d="M1268.407,82.311c2.483,0,4.627,1.861,4.919,4.386c0.314,2.72-1.632,5.179-4.352,5.494
			c-0.193,0.022-0.387,0.034-0.577,0.034c-2.482,0-4.624-1.858-4.917-4.384c-0.317-2.719,1.631-5.18,4.352-5.496
			C1268.025,82.321,1268.218,82.311,1268.407,82.311 M1268.407,77.59c-0.371,0-0.747,0.021-1.117,0.063
			c-2.571,0.3-4.869,1.58-6.474,3.606c-1.605,2.027-2.324,4.558-2.024,7.126c0.566,4.876,4.695,8.557,9.605,8.557
			c0.373,0,0.75-0.021,1.122-0.064c5.3-0.617,9.109-5.429,8.494-10.728C1277.45,81.272,1273.319,77.59,1268.407,77.59
			L1268.407,77.59z"/>
	</g>
	<path fill="none" stroke="#000000" stroke-width="2.36" stroke-miterlimit="10" d="M1321.482,107.979
		c10.135,4.705,21.883,6.113,33.584,3.215l107.001-27.307c10.217-2.528,20.471-1.777,29.651,1.586"/>
	<g>
		<path d="M1318.189,103.91c1.11,0,2.122,0.755,2.401,1.884c0.329,1.328-0.481,2.672-1.809,3.001c-0.2,0.049-0.4,0.073-0.597,0.073
			c-1.114,0-2.126-0.757-2.406-1.885c-0.328-1.329,0.479-2.673,1.812-3.001C1317.792,103.934,1317.992,103.91,1318.189,103.91
			 M1318.189,101.55c-0.394,0-0.785,0.048-1.168,0.144c-1.251,0.31-2.312,1.09-2.979,2.196c-0.667,1.105-0.862,2.406-0.554,3.66
			c0.539,2.167,2.47,3.678,4.697,3.678c0.39,0,0.781-0.048,1.161-0.142c2.592-0.644,4.176-3.271,3.534-5.859
			C1322.345,103.062,1320.416,101.55,1318.189,101.55L1318.189,101.55z"/>
	</g>
	<path fill="none" stroke="#000000" stroke-width="4.72" stroke-miterlimit="10" d="M1274.276,91.283
		c8.045,4.616,17.594,6.788,27.524,5.634l162.153-18.243c9.568-1.111,18.78,0.863,26.637,5.138"/>
	<g>
		<path d="M1287.017,52.36c2.54,0,4.703,1.94,4.932,4.519c0.241,2.729-1.775,5.132-4.502,5.375c-0.148,0.013-0.295,0.02-0.439,0.02
			c-2.539,0-4.702-1.94-4.933-4.52c-0.241-2.729,1.774-5.131,4.5-5.373C1286.722,52.366,1286.871,52.36,1287.017,52.36
			 M1287.017,47.64c-0.285,0-0.573,0.013-0.858,0.038c-5.313,0.472-9.255,5.178-8.786,10.49c0.447,5.031,4.589,8.824,9.634,8.824
			c0.284,0,0.571-0.014,0.855-0.038c5.317-0.475,9.258-5.182,8.788-10.492C1296.204,51.432,1292.062,47.64,1287.017,47.64
			L1287.017,47.64z"/>
	</g>
	<g>
		<path d="M1497.948,82.86c2.1,0,4.05,1.346,4.722,3.454c0.831,2.609-0.61,5.397-3.22,6.227c-0.501,0.159-1.008,0.234-1.506,0.234
			c-2.101,0-4.049-1.346-4.721-3.455c-0.83-2.607,0.61-5.395,3.221-6.226C1496.944,82.936,1497.45,82.86,1497.948,82.86
			 M1497.948,78.14c-0.994,0-1.981,0.154-2.936,0.457c-5.085,1.62-7.904,7.072-6.288,12.155c1.285,4.034,4.989,6.744,9.22,6.744
			c0.996,0,1.983-0.154,2.938-0.458c2.46-0.781,4.473-2.478,5.659-4.774c1.188-2.296,1.41-4.918,0.625-7.382
			C1505.883,80.85,1502.177,78.14,1497.948,78.14L1497.948,78.14z"/>
	</g>
	<path fill="none" stroke="#000000" stroke-width="4.72" stroke-miterlimit="10" d="M1292.781,61.304
		c18.625,12.528,41.51,18.99,65.635,16.856l75.355-6.899c20.665-1.827,40.42,2.652,57.366,11.85"/>
	<circle cx="1204.589" cy="62.987" r="4.13"/>
	<path fill="none" stroke="#000000" stroke-width="4.72" stroke-miterlimit="10" d="M1490.92,87.547
		c-23.993,0.341-48.314,5.607-71.521,16.332l-8.324,3.848c-94.605,44.706-184.331-12.32-205.153-41.938"/>
	<path fill="none" stroke="#000000" stroke-width="4.72" stroke-miterlimit="10" d="M1865.923,116.885
		c-23.994,0.291-48.445-4.334-71.927-14.444l-8.423-3.625c-95.75-42.2-183.943,17.169-203.979,47.324"/>
	<g>
		<path d="M2113.052,32.977c-0.807-2.36,0.277-4.999,2.587-6.083c2.479-1.16,5.427-0.096,6.592,2.382
			c0.082,0.169,0.147,0.339,0.207,0.51c0.806,2.36-0.276,4.999-2.589,6.08c-2.479,1.163-5.43,0.099-6.59-2.38
			C2113.18,33.319,2113.111,33.148,2113.052,32.977 M2108.584,34.502c0.115,0.333,0.249,0.665,0.399,0.989
			c2.266,4.827,8.037,6.916,12.869,4.65c4.477-2.101,6.646-7.206,5.049-11.881c-0.109-0.332-0.248-0.667-0.398-0.989
			c-2.265-4.83-8.039-6.915-12.866-4.65C2109.161,24.719,2106.989,29.827,2108.584,34.502L2108.584,34.502z"/>
	</g>
	<g>
		<path d="M2293.463,129.686c0.382,0.206,0.743,0.463,1.071,0.775c1.986,1.881,2.066,5.02,0.186,7.006
			c-1.572,1.657-4.018,1.99-5.936,0.959c-0.381-0.203-0.741-0.462-1.07-0.772c-1.988-1.886-2.07-5.022-0.187-7.009
			C2289.098,128.988,2291.543,128.655,2293.463,129.686 M2295.692,125.528L2295.692,125.528c-3.832-2.054-8.598-1.286-11.59,1.871
			c-3.672,3.868-3.509,10.005,0.362,13.68c0.63,0.596,1.33,1.102,2.087,1.507c3.827,2.054,8.597,1.286,11.592-1.867
			c3.672-3.88,3.508-10.013-0.362-13.683C2297.155,126.442,2296.45,125.934,2295.692,125.528L2295.692,125.528z"/>
	</g>
	<g>
		<path d="M2183.052,108.78c0.51,0,1.028,0.078,1.54,0.246c2.6,0.85,4.021,3.646,3.171,6.25c-0.683,2.09-2.624,3.418-4.71,3.418
			c-0.51,0-1.027-0.078-1.538-0.246c-2.604-0.851-4.023-3.646-3.175-6.248C2179.022,110.107,2180.964,108.78,2183.052,108.78
			 M2183.052,104.059L2183.052,104.059c-4.199,0-7.896,2.684-9.199,6.676c-0.802,2.457-0.599,5.078,0.571,7.383
			c1.171,2.305,3.169,4.016,5.627,4.818c0.972,0.315,1.982,0.479,3.002,0.479c4.197,0,7.895-2.682,9.197-6.674
			c0.803-2.456,0.6-5.079-0.57-7.385c-1.17-2.305-3.166-4.016-5.621-4.816C2185.082,104.219,2184.072,104.059,2183.052,104.059
			L2183.052,104.059z"/>
	</g>
	<path fill="none" stroke="#000000" stroke-width="4.72" stroke-miterlimit="10" d="M2282.595,136.208
		c-13.257,2.364-27.387,0.372-40.112-6.64l-16.574-9.254c-10.901-6.007-22.83-8.332-34.361-7.387"/>
	<circle cx="2003.278" cy="133.428" r="4.131"/>
	<path fill="none" stroke="#000000" stroke-width="2.36" stroke-miterlimit="10" d="M2228.499,48.484
		c-2.695,10.843-8.978,20.869-18.572,28.163l-5.723,4.588c-8.38,6.367-14.233,14.822-17.378,24.078"/>
	<g>
		<path d="M2228.439,42.845c0.94-0.248,1.983,0.077,2.608,0.9c0.828,1.091,0.615,2.643-0.476,3.472
			c-0.267,0.202-0.559,0.341-0.862,0.422c-0.94,0.247-1.981-0.075-2.609-0.9c-0.825-1.088-0.613-2.642,0.477-3.469
			C2227.842,43.068,2228.135,42.925,2228.439,42.845 M2227.836,40.565L2227.836,40.565c-0.612,0.162-1.182,0.44-1.689,0.823
			c-1.027,0.783-1.691,1.92-1.866,3.201c-0.175,1.282,0.16,2.552,0.944,3.582c1.188,1.565,3.187,2.253,5.089,1.752
			c0.612-0.164,1.184-0.441,1.689-0.826c2.12-1.613,2.538-4.654,0.926-6.777C2231.732,40.75,2229.737,40.062,2227.836,40.565
			L2227.836,40.565z"/>
	</g>
	<path fill="none" stroke="#000000" stroke-width="4.72" stroke-miterlimit="10" d="M2123.87,34.134
		c8.055,4.604,14.756,11.739,18.786,20.895l14.74,33.476c3.882,8.816,10.247,15.761,17.909,20.375"/>
	<path fill="none" stroke="#000000" stroke-width="4.72" stroke-miterlimit="10" d="M2176.3,113.672
		c-14.396,0.174-29.066-2.602-43.156-8.668l-5.053-2.174c-57.451-25.32-110.367,10.301-122.388,28.395"/>
	<text transform="matrix(1 0 0 1 13.7195 4.6975)" font-family="'MyriadPro-Light'" font-size="14">promises</text>
	<text transform="matrix(1 0 0 1 400.7195 4.6975)" font-family="'MyriadPro-Light'" font-size="14">lanyrd</text>
	<text transform="matrix(1 0 0 1 788.7195 4.6975)" font-family="'MyriadPro-Light'" font-size="14">pablo</text>
	<text transform="matrix(1 0 0 1 1175.7195 4.6975)" font-family="'MyriadPro-Light'" font-size="14">json patch</text>
	<text transform="matrix(1 0 0 1 1569.7195 4.6975)" font-family="'MyriadPro-Light'" font-size="14">cleanslate</text>
	<text transform="matrix(1 0 0 1 1957.7195 4.6975)" font-family="'MyriadPro-Light'" font-size="14">socialgraph</text>
</g>
<g id="Dev" display="none">
	<path display="inline" fill="none" stroke="#000000" stroke-width="4.72" stroke-miterlimit="10" d="M352.97-158.134
		c-22.922,7.103-47.68,9.623-73.065,6.608l-9.106-1.081C167-165.833,99.333-83.833,88.701-49.225"/>
	<g display="inline">
		<path d="M1948.665-436.573c2.681,0,4.885,2.141,4.95,4.835c0.065,2.736-2.096,5.007-4.834,5.075
			c-0.041,0.001-0.082,0.001-0.123,0.001c-2.682,0-4.887-2.139-4.952-4.834c-0.067-2.736,2.097-5.01,4.833-5.076
			C1948.581-436.573,1948.623-436.573,1948.665-436.573 M1948.665-441.294c-0.081,0-0.162,0.001-0.244,0.003
			c-2.581,0.062-4.985,1.128-6.769,3.001c-1.782,1.872-2.729,4.326-2.665,6.91c0.131,5.292,4.379,9.438,9.671,9.438
			c0.079,0,0.158-0.001,0.235-0.003c5.337-0.131,9.568-4.576,9.439-9.908C1958.207-437.058,1953.87-441.294,1948.665-441.294
			L1948.665-441.294z"/>
	</g>
	<g display="inline">
		<path d="M2315.201-571.813c1.215,0,2.433,0.444,3.389,1.34c1.998,1.872,2.098,5.009,0.227,7.007
			c-0.977,1.041-2.295,1.565-3.617,1.565c-1.215,0-2.432-0.443-3.389-1.34c-1.998-1.874-2.098-5.009-0.225-7.008
			C2312.56-571.287,2313.879-571.813,2315.201-571.813 M2315.201-576.533c-2.664,0-5.236,1.114-7.06,3.056
			c-3.647,3.896-3.45,10.031,0.439,13.681c1.801,1.688,4.148,2.617,6.616,2.617c2.664,0,5.237-1.114,7.061-3.059
			c3.648-3.896,3.451-10.031-0.441-13.679C2320.017-575.604,2317.668-576.533,2315.201-576.533L2315.201-576.533z"/>
	</g>
	<g display="inline">
		<path d="M2160.349-471.79c0.078,0,0.158,0.002,0.238,0.006c2.735,0.132,4.846,2.453,4.715,5.188
			c-0.129,2.653-2.317,4.719-4.946,4.719c-0.08,0-0.161-0.002-0.242-0.006c-2.733-0.128-4.845-2.452-4.713-5.188
			C2155.528-469.725,2157.72-471.789,2160.349-471.79 M2160.349-476.509L2160.349-476.509c-5.17,0-9.414,4.047-9.664,9.212
			c-0.123,2.583,0.767,5.061,2.507,6.974c1.737,1.913,4.118,3.033,6.7,3.155c0.151,0.007,0.308,0.011,0.464,0.011
			c5.167,0,9.411-4.045,9.662-9.21c0.253-5.332-3.875-9.874-9.202-10.131C2160.656-476.506,2160.503-476.509,2160.349-476.509
			L2160.349-476.509z"/>
	</g>
	<path display="inline" fill="none" stroke="#000000" stroke-width="4.72" stroke-miterlimit="10" d="M2308.239-565.985
		c-22.233,3.073-43.602,13.507-60.165,31.176l-30.487,32.521c-14.188,15.134-31.901,24.96-50.665,29.397"/>
	<circle display="inline" cx="2437.437" cy="-566.324" r="4.131"/>
	<path display="inline" fill="none" stroke="#000000" stroke-width="2.36" stroke-miterlimit="10" d="M1647.033-427.192
		c8.632,7.094,19.651,11.4,31.707,11.526l87.758-0.283c10.525,0.112,20.264,3.408,28.309,8.965"/>
	<g display="inline">
		<path d="M1644.237-432.036c0.01,0,0.021,0,0.03,0c1.366,0.013,2.465,1.134,2.449,2.504c-0.014,1.36-1.122,2.452-2.478,2.452
			c-0.009,0-0.018,0-0.025,0c-1.37-0.016-2.466-1.137-2.453-2.505C1641.777-430.944,1642.88-432.036,1644.237-432.036
			 M1644.237-434.397c-2.638,0-4.807,2.146-4.835,4.785c-0.025,2.669,2.122,4.861,4.785,4.893h0.014h0.039
			c2.641,0,4.811-2.148,4.838-4.789c0.014-1.292-0.479-2.515-1.383-3.438c-0.905-0.922-2.114-1.437-3.406-1.449h-0.011
			L1644.237-434.397L1644.237-434.397z"/>
	</g>
	<path display="inline" fill="none" stroke="#000000" stroke-width="4.72" stroke-miterlimit="10" d="M1943.406-426.821
		c-7.322,5.696-16.474,9.18-26.469,9.424l-97.218,2.378c-9.631,0.235-18.475,3.479-25.657,8.809"/>
	<g display="inline">
		<path d="M1636.275-584.221c2.272,0,4.322,1.575,4.834,3.888c0.59,2.672-1.099,5.315-3.771,5.907
			c-0.36,0.08-0.722,0.117-1.076,0.117c-2.273,0-4.321-1.574-4.833-3.887c-0.591-2.672,1.098-5.318,3.771-5.909
			C1635.562-584.184,1635.921-584.221,1636.275-584.221 M1636.275-588.942c-0.701,0-1.405,0.077-2.095,0.229
			c-2.521,0.557-4.679,2.063-6.068,4.244c-1.391,2.18-1.85,4.77-1.29,7.293c0.972,4.396,4.941,7.588,9.44,7.588
			c0.702,0,1.407-0.078,2.097-0.23c5.207-1.15,8.509-6.325,7.358-11.533C1644.748-585.749,1640.776-588.942,1636.275-588.942
			L1636.275-588.942z"/>
	</g>
	<path display="inline" fill="none" stroke="#000000" stroke-width="2.36" stroke-miterlimit="10" d="M1590.961-612.537
		c8.632,7.094,19.652,11.4,31.707,11.526l143.83-0.283c10.525,0.111,20.264,3.408,28.309,8.965"/>
	<g display="inline">
		<path d="M1588.165-617.381c0.01,0,0.021,0,0.03,0c1.367,0.013,2.465,1.134,2.449,2.504c-0.014,1.359-1.121,2.452-2.478,2.452
			c-0.009,0-0.017,0-0.025,0c-1.37-0.017-2.466-1.138-2.452-2.505C1585.705-616.289,1586.807-617.381,1588.165-617.381
			 M1588.165-619.741c-2.637,0-4.806,2.146-4.835,4.785c-0.025,2.669,2.122,4.861,4.785,4.892h0.014h0.039
			c2.641,0,4.812-2.147,4.838-4.789c0.015-1.292-0.478-2.514-1.383-3.438c-0.905-0.922-2.114-1.438-3.406-1.449h-0.011
			L1588.165-619.741L1588.165-619.741z"/>
	</g>
	<path display="inline" fill="none" stroke="#000000" stroke-width="4.72" stroke-miterlimit="10" d="M1642.521-575.868
		c8.474,3.775,18.192,4.965,27.955,2.806l94.953-20.99c9.406-2.079,18.771-1.052,27.021,2.401"/>
	<g display="inline">
		<path d="M1371.787-859.088c2.681,0,4.886,2.138,4.952,4.835c0.065,2.736-2.098,5.008-4.832,5.075
			c-0.041,0.001-0.083,0.001-0.124,0.001c-2.682,0-4.887-2.141-4.952-4.834c-0.068-2.737,2.098-5.011,4.834-5.076
			C1371.706-859.087,1371.747-859.088,1371.787-859.088 M1371.788-863.807c-0.079,0-0.158,0.001-0.237,0.003
			c-2.584,0.062-4.989,1.128-6.771,3c-1.783,1.873-2.73,4.327-2.666,6.913c0.126,5.201,4.465,9.437,9.671,9.437
			c0.079,0,0.159-0.001,0.239-0.003c5.332-0.131,9.563-4.576,9.436-9.909C1381.328-859.662,1377.08-863.807,1371.788-863.807
			L1371.788-863.807z"/>
	</g>
	<path display="inline" fill="none" stroke="#000000" stroke-width="2.36" stroke-miterlimit="10" d="M1374.392-726.202
		c7.095-8.631,11.4-19.652,11.526-31.707l-0.283-5.262c0.112-10.524,3.408-20.264,8.965-28.309"/>
	<g display="inline">
		<path d="M1372.023-725.885c0.01,0,0.02,0,0.028,0c1.368,0.014,2.466,1.135,2.452,2.502c-0.016,1.361-1.123,2.453-2.479,2.453
			c-0.01,0-0.018,0-0.025,0c-1.369-0.017-2.468-1.136-2.451-2.507C1369.562-724.794,1370.667-725.885,1372.023-725.885
			 M1372.023-728.246c-2.642,0-4.812,2.146-4.834,4.788c-0.017,1.287,0.474,2.51,1.379,3.434c0.902,0.923,2.111,1.438,3.403,1.453
			l0.015,0.001h0.039c2.639,0,4.81-2.146,4.84-4.786c0.013-1.295-0.479-2.515-1.383-3.438c-0.904-0.923-2.114-1.438-3.406-1.452
			h-0.012H1372.023L1372.023-728.246z"/>
	</g>
	<path display="inline" fill="none" stroke="#000000" stroke-width="4.72" stroke-miterlimit="10" d="M1376.581-848.877
		c5.696,7.322,9.18,16.473,9.424,26.469l0.562,6.016c0.234,9.632,3.479,18.476,8.808,25.658"/>
	<g display="inline">
		<path d="M2445.959-572.399c0.041,0,0.082,0,0.123,0.001c2.738,0.067,4.9,2.339,4.834,5.074c-0.064,2.694-2.271,4.835-4.95,4.835
			c-0.042,0-0.084,0-0.126-0.001c-2.736-0.066-4.899-2.34-4.834-5.076C2441.073-570.26,2443.278-572.399,2445.959-572.399
			 M2445.959-577.119c-5.291,0-9.539,4.145-9.672,9.436c-0.062,2.588,0.885,5.041,2.666,6.912c1.783,1.873,4.188,2.938,6.771,3.001
			c0.078,0.002,0.159,0.003,0.24,0.003c5.205,0,9.542-4.234,9.669-9.44c0.129-5.332-4.104-9.776-9.437-9.908
			C2446.117-577.118,2446.038-577.119,2445.959-577.119L2445.959-577.119z"/>
	</g>
	<path display="inline" fill="none" stroke="#000000" stroke-width="2.36" stroke-miterlimit="10" d="M2318.031-570.051
		c8.631-7.095,19.652-11.4,31.707-11.526l5.262,0.283c10.523-0.112,20.264-3.408,28.309-8.965"/>
	<g display="inline">
		<path d="M2315.238-570.163c1.354,0,2.463,1.092,2.477,2.452c0.017,1.37-1.082,2.491-2.449,2.504c-0.01,0-0.021,0-0.029,0
			c-1.357,0-2.46-1.092-2.477-2.451c-0.014-1.368,1.082-2.489,2.453-2.505C2315.221-570.163,2315.228-570.163,2315.238-570.163
			 M2315.238-572.523h-0.012h-0.036c-2.67,0.03-4.817,2.224-4.79,4.889c0.029,2.642,2.197,4.788,4.835,4.788h0.014h0.044
			c1.287-0.013,2.496-0.527,3.4-1.45c0.904-0.924,1.396-2.146,1.381-3.44C2320.049-570.375,2317.879-572.523,2315.238-572.523
			L2315.238-572.523z"/>
	</g>
	<path display="inline" fill="none" stroke="#000000" stroke-width="4.72" stroke-miterlimit="10" d="M2440.707-572.239
		c-7.322-5.696-16.473-9.18-26.469-9.424l-6.017-0.562c-9.631-0.234-18.475-3.479-25.657-8.808"/>
	<g display="inline">
		<path d="M1318.378-259.956c0.005,0,0.01,0,0.015,0c2.736,0.008,4.948,2.231,4.94,4.969c-0.008,2.732-2.225,4.941-4.954,4.941
			c-0.006,0-0.012,0-0.018,0c-2.737-0.006-4.949-2.232-4.94-4.972C1313.429-257.748,1315.646-259.956,1318.378-259.956
			 M1318.378-264.676c-5.319,0-9.66,4.326-9.677,9.644c-0.009,2.588,0.991,5.022,2.814,6.855c1.822,1.833,4.25,2.846,6.835,2.851
			c5.348,0,9.688-4.328,9.701-9.647c0.009-2.584-0.991-5.017-2.812-6.85c-1.822-1.832-4.249-2.845-6.833-2.853h-0.007H1318.378
			L1318.378-264.676z"/>
	</g>
	<g display="inline">
		<path d="M1298.213-574.789c0.383,0,0.771,0.045,1.16,0.138c2.663,0.642,4.302,3.315,3.663,5.979
			c-0.546,2.272-2.577,3.799-4.815,3.799c-0.384,0-0.772-0.045-1.162-0.138c-2.661-0.642-4.301-3.315-3.659-5.979
			C1293.944-573.261,1295.975-574.789,1298.213-574.789 M1298.213-579.508L1298.213-579.508c-4.487,0-8.354,3.049-9.402,7.415
			c-1.248,5.186,1.957,10.422,7.144,11.671c0.746,0.179,1.508,0.27,2.268,0.27c4.488,0,8.355-3.05,9.404-7.417
			c1.244-5.187-1.962-10.421-7.146-11.669C1299.733-579.418,1298.971-579.508,1298.213-579.508L1298.213-579.508z"/>
	</g>
	<g display="inline">
		<path d="M1480.999-286.252c0.579,0,1.168,0.103,1.743,0.317c2.563,0.965,3.859,3.819,2.896,6.384
			c-0.745,1.987-2.634,3.215-4.64,3.215c-0.58,0-1.169-0.103-1.744-0.318c-2.562-0.965-3.855-3.822-2.896-6.384
			C1477.108-285.026,1478.994-286.252,1480.999-286.252 M1480.999-290.971L1480.999-290.971c-4.005,0-7.644,2.52-9.057,6.27
			c-1.875,4.998,0.659,10.587,5.648,12.465c1.099,0.412,2.243,0.621,3.407,0.621c4.009,0,7.649-2.521,9.059-6.276
			c0.909-2.418,0.822-5.047-0.246-7.399c-1.066-2.354-2.987-4.15-5.408-5.061C1483.307-290.762,1482.163-290.971,1480.999-290.971
			L1480.999-290.971z"/>
	</g>
	<path display="inline" fill="none" stroke="#000000" stroke-width="4.72" stroke-miterlimit="10" d="M1481.273-288.238
		c1.414-23.955,7.768-48.014,19.521-70.719l4.215-8.144c24.308-46.947,25.521-99.696,7.744-145.314
		c-8.896-22.832-22.55-43.877-40.438-61.514"/>
	<path display="inline" fill="none" stroke="#000000" stroke-width="4.72" stroke-miterlimit="10" d="M1304.51-572.928
		c20.266-9.65,43.853-12.676,67.398-7.014l40.043,9.558c20.171,4.848,40.369,3.323,58.483-3.278"/>
	<circle display="inline" cx="1472.316" cy="-573.928" r="4.131"/>
	<path display="inline" fill="none" stroke="#000000" stroke-width="2.36" stroke-miterlimit="10" d="M1321.486-269.185
		c-7.107-8.619-11.435-19.633-11.58-31.687l0.036-234.599c-0.134-10.525-3.445-20.26-9.016-28.295"/>
	<g display="inline">
		<path d="M1323.858-268.873c1.354,0,2.461,1.089,2.477,2.446c0.021,1.37-1.077,2.491-2.446,2.509c-0.01,0-0.02,0-0.028,0
			c-1.355,0-2.464-1.087-2.481-2.449c-0.014-1.367,1.08-2.49,2.45-2.506C1323.838-268.873,1323.848-268.873,1323.858-268.873
			 M1323.859-271.233h-0.016h-0.044c-2.664,0.032-4.81,2.227-4.782,4.891c0.035,2.642,2.207,4.785,4.842,4.785h0.014l0.043-0.001
			c1.296-0.016,2.506-0.533,3.409-1.461c0.901-0.926,1.388-2.147,1.369-3.44C1328.665-269.089,1326.495-271.233,1323.859-271.233
			L1323.859-271.233z"/>
	</g>
	<path display="inline" fill="none" stroke="#000000" stroke-width="4.72" stroke-miterlimit="10" d="M1323.76-259.651
		c7.477-5.493,16.718-8.724,26.718-8.693l97.245,0.29c9.635,0.027,18.562-2.971,25.891-8.102"/>
	<g display="inline">
		<path d="M955.55-376.158c0.094,0,0.188,0.002,0.282,0.008c2.731,0.152,4.82,2.491,4.669,5.226
			c-0.148,2.639-2.333,4.677-4.941,4.677c-0.095,0-0.189-0.002-0.284-0.008c-2.732-0.152-4.825-2.492-4.671-5.225
			C950.751-374.119,952.936-376.158,955.55-376.158 M955.55-380.879L955.55-380.879c-5.132,0-9.374,4.015-9.658,9.138
			c-0.146,2.575,0.724,5.059,2.447,6.985c1.722,1.927,4.092,3.067,6.672,3.211c0.184,0.011,0.366,0.017,0.549,0.017
			c5.126,0,9.367-4.013,9.654-9.133c0.297-5.328-3.793-9.904-9.117-10.202C955.913-380.874,955.73-380.879,955.55-380.879
			L955.55-380.879z"/>
	</g>
	<g display="inline">
		<path d="M1134.446-370.706c2.235,0,4.267,1.524,4.812,3.795c0.642,2.66-0.994,5.339-3.654,5.979
			c-0.391,0.095-0.782,0.141-1.168,0.141c-2.236,0-4.266-1.524-4.812-3.794c-0.644-2.661,0.993-5.337,3.655-5.98
			C1133.671-370.66,1134.061-370.706,1134.446-370.706 M1134.446-375.425c-0.764,0-1.528,0.091-2.274,0.271
			c-5.187,1.253-8.388,6.491-7.136,11.676c1.053,4.36,4.918,7.406,9.4,7.406c0.764,0,1.529-0.091,2.275-0.271
			c2.511-0.605,4.638-2.153,5.984-4.36c1.349-2.205,1.756-4.803,1.149-7.314C1142.798-372.378,1138.931-375.425,1134.446-375.425
			L1134.446-375.425z"/>
	</g>
	<path display="inline" fill="none" stroke="#000000" stroke-width="4.72" stroke-miterlimit="10" d="M1127.517-366.328
		c-23.948-1.529-48.606,1.827-72.579,10.71l-8.598,3.188c-49.571,18.371-102.073,13.11-145.172-10.118
		c-21.566-11.627-40.781-27.754-56.093-47.672"/>
	<circle display="inline" cx="845.075" cy="-410.221" r="4.131"/>
	<path display="inline" fill="none" stroke="#000000" stroke-width="2.36" stroke-miterlimit="10" d="M951.975-370.437
		c-10.992,1.986-22.715,0.373-33.301-5.391l-2.354-1.245c-9.244-5.036-19.354-6.906-29.087-5.977"/>
	<g display="inline">
		<path d="M955.575-373.62c0.4,0,0.808,0.097,1.185,0.302c1.199,0.653,1.643,2.162,0.988,3.363c-0.449,0.825-1.301,1.294-2.18,1.294
			c-0.399,0-0.807-0.098-1.184-0.304c-1.2-0.653-1.647-2.159-0.988-3.363C953.844-373.152,954.695-373.62,955.575-373.62
			 M955.575-375.98L955.575-375.98c-1.777,0-3.406,0.968-4.253,2.527c-0.616,1.127-0.759,2.436-0.394,3.676
			c0.364,1.242,1.189,2.267,2.327,2.885c0.708,0.386,1.508,0.59,2.312,0.59c1.774,0,3.403-0.968,4.252-2.525
			c1.275-2.343,0.409-5.287-1.932-6.563C957.177-375.777,956.379-375.98,955.575-375.98L955.575-375.98z"/>
	</g>
	<path display="inline" fill="none" stroke="#000000" stroke-width="4.72" stroke-miterlimit="10" d="M961.175-375.561
		c7.758-5.088,17.157-7.824,27.143-7.263l7.234,0.445c9.618,0.54,18.691-1.979,26.282-6.715"/>
	<g display="inline">
		<path d="M954.495-156.585c0.23,0,0.463,0.016,0.698,0.049c2.709,0.383,4.595,2.887,4.214,5.6c-0.35,2.476-2.47,4.264-4.899,4.264
			c-0.229,0-0.464-0.016-0.698-0.049c-2.711-0.383-4.601-2.89-4.217-5.599C949.938-154.796,952.061-156.585,954.495-156.585
			 M954.495-161.303L954.495-161.303c-4.796,0-8.913,3.582-9.577,8.332c-0.361,2.551,0.296,5.099,1.854,7.165
			c1.554,2.062,3.818,3.398,6.378,3.76c0.448,0.062,0.906,0.096,1.358,0.096c4.787,0,8.903-3.579,9.573-8.324
			c0.742-5.283-2.949-10.187-8.228-10.932C955.402-161.273,954.946-161.303,954.495-161.303L954.495-161.303z"/>
	</g>
	<path display="inline" fill="none" stroke="#000000" stroke-width="2.36" stroke-miterlimit="10" d="M938.53-145.129
		c-10.992,1.986-22.715,0.373-33.301-5.391l-2.354-1.245c-9.244-5.036-19.354-6.906-29.087-5.977"/>
	<g display="inline">
		<path d="M942.13-148.312c0.4,0,0.808,0.097,1.185,0.302c1.198,0.653,1.643,2.162,0.987,3.362c-0.448,0.826-1.3,1.295-2.179,1.295
			c-0.4,0-0.807-0.099-1.184-0.304c-1.2-0.653-1.647-2.159-0.988-3.363C940.398-147.844,941.25-148.312,942.13-148.312
			 M942.13-150.673L942.13-150.673c-1.777,0-3.406,0.968-4.253,2.527c-0.617,1.127-0.759,2.436-0.394,3.676
			c0.363,1.242,1.189,2.267,2.327,2.885c0.708,0.386,1.508,0.59,2.312,0.59c1.774,0,3.403-0.968,4.252-2.525
			c1.275-2.343,0.409-5.287-1.932-6.563C943.732-150.469,942.932-150.673,942.13-150.673L942.13-150.673z"/>
	</g>
	<path display="inline" fill="none" stroke="#000000" stroke-width="4.72" stroke-miterlimit="10" d="M960.468-155.5
		c8.157-4.42,17.753-6.358,27.656-4.961l7.171,1.051c9.539,1.345,18.792-0.406,26.753-4.486"/>
	<g display="inline">
		<path d="M955.536-258.74c0.252,0,0.506,0.02,0.762,0.058c2.704,0.416,4.56,2.944,4.144,5.651c-0.377,2.45-2.485,4.203-4.891,4.203
			c-0.25,0-0.504-0.019-0.76-0.059c-2.706-0.416-4.562-2.946-4.146-5.65C951.018-256.987,953.129-258.74,955.536-258.74
			 M955.536-263.461c-4.811,0-8.829,3.453-9.559,8.209c-0.393,2.551,0.233,5.104,1.764,7.189c1.528,2.083,3.777,3.447,6.332,3.839
			c0.487,0.075,0.984,0.113,1.478,0.113c4.806,0,8.823-3.451,9.556-8.206c0.812-5.272-2.818-10.222-8.091-11.033
			C956.525-263.422,956.028-263.461,955.536-263.461L955.536-263.461z"/>
	</g>
	<g display="inline">
		<path d="M1132.568-234.422c0.658,0,1.326,0.132,1.97,0.41c2.511,1.087,3.663,4.006,2.576,6.517
			c-0.81,1.87-2.635,2.987-4.551,2.987c-0.657,0-1.324-0.132-1.966-0.409c-2.514-1.09-3.667-4.006-2.579-6.519
			C1128.829-233.304,1130.652-234.422,1132.568-234.422 M1132.568-239.142L1132.568-239.142c-3.858,0-7.345,2.288-8.88,5.83
			c-2.121,4.896,0.137,10.604,5.031,12.727c1.224,0.529,2.517,0.8,3.844,0.8c3.861,0,7.348-2.289,8.882-5.832
			c2.12-4.898-0.138-10.605-5.032-12.725C1135.19-238.874,1133.896-239.142,1132.568-239.142L1132.568-239.142z"/>
	</g>
	<path display="inline" fill="none" stroke="#000000" stroke-width="4.72" stroke-miterlimit="10" d="M1125.645-230.08
		c-23.855-2.593-47.576-10.12-69.674-22.977l-7.926-4.61c-45.694-26.587-98.322-30.392-144.76-14.882
		c-23.24,7.764-44.933,20.362-63.427,37.365"/>
	<g display="inline">
		<g>
			<g>
				<path d="M803.981-267.808c2.238,0,4.269,1.522,4.819,3.794c0.648,2.666-0.984,5.354-3.651,6
					c-0.395,0.097-0.789,0.143-1.178,0.143c-2.237,0-4.268-1.523-4.821-3.794c-0.646-2.666,0.987-5.354,3.652-6
					C803.197-267.761,803.593-267.808,803.981-267.808 M803.981-272.497c-0.768,0-1.536,0.092-2.286,0.273
					c-5.173,1.259-8.357,6.49-7.102,11.664c1.059,4.346,4.915,7.376,9.378,7.376c0.768,0,1.536-0.092,2.285-0.273
					c2.507-0.609,4.627-2.159,5.968-4.363s1.742-4.797,1.132-7.304C812.302-269.464,808.447-272.497,803.981-272.497
					L803.981-272.497z"/>
			</g>
		</g>
		<path fill="none" stroke="#000000" stroke-width="4.689" stroke-miterlimit="10" d="M811.357-260.566
			c67.119,31.735,145.157,41.526,222.991,22.594l4.278-1.325c19.432-4.728,38.902-3.312,56.382,3.004"/>
	</g>
	<circle display="inline" cx="839.858" cy="-235.183" r="4.13"/>
	<g display="inline">
		<path d="M1129.84-130.138c0.658,0,1.326,0.132,1.97,0.41c2.511,1.087,3.663,4.006,2.576,6.517c-0.81,1.87-2.635,2.987-4.551,2.987
			c-0.657,0-1.324-0.132-1.966-0.409c-2.514-1.09-3.667-4.006-2.579-6.519C1126.1-129.021,1127.924-130.138,1129.84-130.138
			 M1129.84-134.859L1129.84-134.859c-3.858,0-7.345,2.288-8.88,5.83c-2.121,4.896,0.137,10.604,5.031,12.727
			c1.224,0.529,2.517,0.8,3.844,0.8c3.861,0,7.348-2.289,8.882-5.832c2.12-4.898-0.138-10.605-5.032-12.725
			C1132.462-134.591,1131.168-134.859,1129.84-134.859L1129.84-134.859z"/>
	</g>
	<path display="inline" fill="none" stroke="#000000" stroke-width="4.72" stroke-miterlimit="10" d="M1122.917-125.797
		c-23.855-2.593-47.576-10.12-69.674-22.977l-7.926-4.61c-45.694-26.587-98.322-30.392-144.76-14.882
		c-23.24,7.764-44.933,20.362-63.427,37.365"/>
	<g display="inline">
		<g>
			<g>
				<path d="M801.253-163.525c2.238,0,4.269,1.522,4.819,3.794c0.648,2.666-0.984,5.354-3.651,6
					c-0.395,0.097-0.789,0.143-1.178,0.143c-2.237,0-4.268-1.523-4.821-3.794c-0.646-2.666,0.987-5.354,3.652-6
					C800.469-163.478,800.864-163.525,801.253-163.525 M801.253-168.214c-0.768,0-1.536,0.092-2.286,0.273
					c-5.173,1.259-8.357,6.49-7.102,11.664c1.059,4.346,4.915,7.376,9.378,7.376c0.768,0,1.536-0.092,2.285-0.273
					c2.507-0.609,4.627-2.159,5.968-4.363s1.742-4.797,1.132-7.304C809.574-165.18,805.719-168.214,801.253-168.214L801.253-168.214
					z"/>
			</g>
		</g>
		<path fill="none" stroke="#000000" stroke-width="4.689" stroke-miterlimit="10" d="M808.629-156.283
			c67.119,31.735,145.157,41.526,222.991,22.594l4.278-1.325c19.432-4.728,38.902-3.312,56.382,3.004"/>
	</g>
	<circle display="inline" cx="837.13" cy="-130.9" r="4.13"/>
	<path display="inline" fill="none" stroke="#000000" stroke-width="2.36" stroke-miterlimit="10" d="M863.416-200.449
		c8.023-7.771,18.659-12.96,30.661-14.067l24.542-2.266c10.482-0.966,19.923-5.043,27.487-11.236"/>
	<g display="inline">
		<path d="M860.824-200.343c1.267,0,2.349,0.965,2.468,2.254c0.126,1.36-0.878,2.567-2.24,2.694
			c-0.077,0.008-0.153,0.012-0.229,0.012c-1.266,0-2.347-0.968-2.466-2.253c-0.126-1.363,0.876-2.57,2.241-2.696
			C860.673-200.339,860.749-200.343,860.824-200.343 M860.824-202.702L860.824-202.702c-0.146,0-0.294,0.007-0.44,0.02
			c-1.291,0.119-2.455,0.732-3.281,1.728s-1.215,2.25-1.096,3.537c0.23,2.506,2.302,4.396,4.814,4.396
			c0.147,0,0.297-0.006,0.445-0.02c2.659-0.248,4.62-2.609,4.374-5.265C865.411-200.813,863.339-202.702,860.824-202.702
			L860.824-202.702z"/>
	</g>
	<path display="inline" fill="none" stroke="#000000" stroke-width="4.72" stroke-miterlimit="10" d="M961.558-257.582
		c8.211-4.317,17.83-6.135,27.715-4.615l23.954,4.663c9.521,1.463,18.797-0.172,26.807-4.154"/>
	<path display="inline" fill="none" stroke="#000000" stroke-width="4.72" stroke-miterlimit="10" d="M2167.071-468.903
		c23.272-5.846,48.132-7.015,73.315-2.625l9.034,1.576c102.925,18.853,174.951-59.345,187.45-93.323"/>
	<g display="inline">
		<path d="M2012.258-591.541c0.396,0,0.798,0.048,1.199,0.146c2.657,0.662,4.275,3.35,3.613,6.008
			c-0.562,2.254-2.582,3.761-4.806,3.761c-0.396,0-0.797-0.048-1.197-0.147c-2.657-0.663-4.276-3.35-3.615-6.008
			C2008.013-590.035,2010.036-591.541,2012.258-591.541 M2012.258-596.26L2012.258-596.26c-4.449,0-8.31,3.019-9.386,7.339
			c-1.287,5.176,1.877,10.437,7.053,11.728c0.771,0.191,1.557,0.288,2.341,0.288c4.451,0,8.312-3.019,9.386-7.342
			c1.288-5.174-1.874-10.437-7.053-11.727C2013.83-596.165,2013.044-596.26,2012.258-596.26L2012.258-596.26z"/>
	</g>
	<g display="inline">
		<path d="M1800.295-593.34c2.1,0,4.05,1.345,4.723,3.454c0.83,2.608-0.611,5.396-3.221,6.226c-0.501,0.159-1.008,0.235-1.506,0.235
			c-2.101,0-4.049-1.347-4.721-3.455c-0.83-2.608,0.611-5.396,3.221-6.227C1799.291-593.263,1799.797-593.34,1800.295-593.34
			 M1800.295-598.06c-0.994,0-1.98,0.154-2.935,0.457c-5.085,1.62-7.905,7.072-6.288,12.155c1.285,4.034,4.988,6.744,9.219,6.744
			c0.996,0,1.984-0.154,2.938-0.458c2.461-0.781,4.473-2.477,5.659-4.774c1.188-2.296,1.41-4.918,0.625-7.382
			C1808.228-595.351,1804.524-598.06,1800.295-598.06L1800.295-598.06z"/>
	</g>
	<path display="inline" fill="none" stroke="#000000" stroke-width="4.72" stroke-miterlimit="10" d="M2005.943-583.537
		c-20.34,9.49-43.95,12.329-67.453,6.48l-73.376-18.492c-20.134-5.008-40.343-3.644-58.511,2.816"/>
	<circle display="inline" cx="2094.064" cy="-613.213" r="4.13"/>
	<path display="inline" fill="none" stroke="#000000" stroke-width="4.72" stroke-miterlimit="10" d="M1807.733-588.653
		c23.993,0.341,48.314,5.608,71.521,16.332l8.324,3.848c94.604,44.706,184.331-12.32,205.153-41.938"/>
	<g display="inline">
		<path d="M2005.017-885.223c2.681,0,4.888,2.143,4.949,4.839c0.064,2.734-2.101,5.005-4.836,5.069
			c-0.04,0.001-0.08,0.001-0.121,0.001c-2.683,0-4.888-2.142-4.951-4.837c-0.065-2.734,2.101-5.009,4.838-5.071
			C2004.937-885.222,2004.976-885.223,2005.017-885.223 M2005.017-889.944c-0.078,0-0.154,0.001-0.232,0.003
			c-2.582,0.061-4.989,1.124-6.774,2.995c-1.784,1.872-2.731,4.326-2.67,6.911c0.123,5.205,4.461,9.443,9.67,9.443
			c0.078,0,0.155-0.001,0.233-0.003c5.332-0.127,9.567-4.569,9.441-9.9C2014.564-885.705,2010.228-889.944,2005.017-889.944
			L2005.017-889.944z"/>
	</g>
	<path display="inline" fill="none" stroke="#000000" stroke-width="2.36" stroke-miterlimit="10" d="M2032.072-898.726
		c7.104,8.623,17.09,14.973,28.895,17.416l28.455,5.583c10.307,2.138,19.229,7.246,26.055,14.248"/>
	<g display="inline">
		<path d="M2029.783-904.065c0.168,0,0.338,0.018,0.508,0.054c1.34,0.275,2.201,1.588,1.922,2.93
			c-0.24,1.17-1.272,1.976-2.423,1.976c-0.167,0-0.336-0.017-0.505-0.052c-1.341-0.279-2.2-1.59-1.926-2.931
			C2027.603-903.259,2028.633-904.065,2029.783-904.065 M2029.783-906.425c-2.277,0-4.27,1.621-4.734,3.854
			c-0.535,2.616,1.15,5.181,3.755,5.724c0.326,0.066,0.657,0.102,0.986,0.102c2.283,0,4.274-1.624,4.733-3.861
			c0.264-1.261,0.018-2.555-0.692-3.636c-0.709-1.081-1.797-1.819-3.063-2.081C2030.446-906.39,2030.114-906.425,2029.783-906.425
			L2029.783-906.425z"/>
	</g>
	<path display="inline" fill="none" stroke="#000000" stroke-width="4.72" stroke-miterlimit="10" d="M2010.492-875.731
		c7.588,5.336,16.896,8.375,26.893,8.138l49.596-1.233c9.629-0.229,18.621,2.584,26.054,7.562"/>
	<g display="inline">
		<path d="M2286.447-730.259c1.465,0,2.914,0.646,3.892,1.883c1.698,2.149,1.334,5.266-0.814,6.963
			c-0.909,0.717-1.993,1.065-3.069,1.065c-1.464,0-2.913-0.645-3.891-1.881c-1.695-2.149-1.334-5.266,0.815-6.965
			C2284.289-729.911,2285.373-730.259,2286.447-730.259 M2286.448-734.98L2286.448-734.98c-2.164,0-4.292,0.74-5.992,2.082
			c-4.185,3.308-4.899,9.404-1.601,13.592c1.852,2.341,4.618,3.681,7.599,3.681c2.165,0,4.294-0.74,5.995-2.084
			c2.029-1.603,3.312-3.898,3.613-6.467c0.3-2.566-0.418-5.097-2.021-7.125C2292.196-733.64,2289.428-734.98,2286.448-734.98
			L2286.448-734.98z"/>
	</g>
	<g display="inline">
		<path d="M2120.103-861.505c2.483,0,4.629,1.861,4.92,4.391c0.312,2.72-1.64,5.179-4.357,5.488
			c-0.193,0.021-0.384,0.033-0.574,0.033c-2.482,0-4.626-1.864-4.917-4.393c-0.312-2.72,1.64-5.176,4.359-5.487
			C2119.726-861.496,2119.916-861.505,2120.103-861.505 M2120.103-866.226c-0.367,0-0.739,0.021-1.106,0.063
			c-5.301,0.609-9.118,5.416-8.512,10.715c0.562,4.891,4.692,8.574,9.605,8.574c0.37,0,0.745-0.021,1.114-0.063
			c2.562-0.292,4.86-1.566,6.469-3.591c1.609-2.024,2.333-4.556,2.038-7.126C2129.15-862.541,2125.021-866.226,2120.103-866.226
			L2120.103-866.226z"/>
	</g>
	<path display="inline" fill="none" stroke="#000000" stroke-width="4.72" stroke-miterlimit="10" d="M2279.59-726.759
		c-21.896-4.937-42.309-17.136-57.32-36.14l-46.729-59.52c-12.862-16.279-29.684-27.562-48.007-33.568"/>
	<circle display="inline" cx="2413.154" cy="-824.351" r="4.13"/>
	<path display="inline" fill="none" stroke="#000000" stroke-width="4.72" stroke-miterlimit="10" d="M2127.452-855.383
		c23.479,4.955,46.331,14.807,67.04,29.798l7.427,5.379c84.228,62.086,183.255,23.401,209.39-1.652"/>
	<g display="inline">
		<path d="M1636.275-732.221c2.272,0,4.322,1.575,4.834,3.888c0.59,2.672-1.099,5.315-3.771,5.907
			c-0.36,0.08-0.722,0.117-1.076,0.117c-2.273,0-4.321-1.574-4.833-3.887c-0.591-2.672,1.098-5.319,3.771-5.909
			C1635.562-732.184,1635.921-732.221,1636.275-732.221 M1636.275-736.942c-0.701,0-1.405,0.077-2.095,0.229
			c-2.521,0.556-4.679,2.062-6.068,4.244c-1.391,2.179-1.85,4.769-1.29,7.292c0.972,4.396,4.941,7.588,9.44,7.588
			c0.702,0,1.407-0.078,2.097-0.23c5.207-1.15,8.509-6.325,7.358-11.533C1644.748-733.75,1640.776-736.942,1636.275-736.942
			L1636.275-736.942z"/>
	</g>
	<path display="inline" fill="none" stroke="#000000" stroke-width="2.36" stroke-miterlimit="10" d="M1527.29-760.537
		c8.632,7.094,19.652,11.4,31.707,11.526l207.501-0.283c10.525,0.111,20.264,3.408,28.309,8.965"/>
	<g display="inline">
		<path d="M1524.494-765.381c0.01,0,0.021,0,0.03,0c1.366,0.013,2.465,1.134,2.449,2.504c-0.014,1.359-1.122,2.452-2.478,2.452
			c-0.009,0-0.018,0-0.025,0c-1.37-0.017-2.466-1.138-2.453-2.505C1522.034-764.289,1523.136-765.381,1524.494-765.381
			 M1524.494-767.741c-2.637,0-4.807,2.146-4.835,4.785c-0.025,2.669,2.122,4.861,4.785,4.892h0.014h0.039
			c2.641,0,4.812-2.147,4.838-4.789c0.015-1.292-0.478-2.514-1.383-3.438c-0.905-0.922-2.114-1.438-3.406-1.449h-0.011
			L1524.494-767.741L1524.494-767.741z"/>
	</g>
	<path display="inline" fill="none" stroke="#000000" stroke-width="4.72" stroke-miterlimit="10" d="M1642.521-723.868
		c8.474,3.775,18.192,4.965,27.955,2.806l94.953-20.99c9.406-2.079,18.771-1.052,27.021,2.401"/>
	<g display="inline">
		<path d="M1593.07-791.462c0.009,0,0.019,0,0.026,0c2.736,0.016,4.943,2.246,4.929,4.981c-0.016,2.731-2.233,4.931-4.961,4.931
			c-0.009,0-0.017,0-0.024,0c-2.735-0.017-4.941-2.247-4.927-4.983C1588.129-789.263,1590.345-791.462,1593.07-791.462
			 M1593.07-796.181c-5.308,0-9.647,4.316-9.677,9.624c-0.029,5.333,4.284,9.697,9.618,9.729h0.015h0.038
			c5.309,0,9.65-4.317,9.682-9.623c0.027-5.335-4.287-9.699-9.621-9.729h-0.014L1593.07-796.181L1593.07-796.181z"/>
	</g>
	<g display="inline">
		<path d="M1800.295-741.34c2.1,0,4.05,1.345,4.723,3.454c0.83,2.608-0.611,5.396-3.221,6.226c-0.501,0.159-1.008,0.235-1.506,0.235
			c-2.101,0-4.049-1.347-4.721-3.455c-0.83-2.608,0.611-5.396,3.221-6.227C1799.291-741.263,1799.797-741.34,1800.295-741.34
			 M1800.295-746.06c-0.994,0-1.98,0.154-2.935,0.457c-5.085,1.62-7.905,7.072-6.288,12.155c1.285,4.034,4.988,6.744,9.219,6.744
			c0.996,0,1.984-0.154,2.938-0.458c2.461-0.781,4.473-2.477,5.659-4.774c1.188-2.296,1.41-4.918,0.625-7.382
			C1808.228-743.351,1804.524-746.06,1800.295-746.06L1800.295-746.06z"/>
	</g>
	<path display="inline" fill="none" stroke="#000000" stroke-width="4.72" stroke-miterlimit="10" d="M1598.439-781.994
		c17.368,14.218,39.548,22.796,63.767,22.931l75.671,0.191c20.745,0.117,39.992,6.428,56.005,17.172"/>
	<circle display="inline" cx="1506.935" cy="-761.213" r="4.13"/>
	<path display="inline" fill="none" stroke="#000000" stroke-width="4.72" stroke-miterlimit="10" d="M1793.266-736.653
		c-23.993,0.341-48.314,5.608-71.521,16.332l-8.324,3.849c-94.604,44.705-184.331-12.321-205.153-41.938"/>
	<g display="inline">
		<path d="M2206.521,216.483c-0.626-2.414,0.652-4.963,3.037-5.871c2.56-0.971,5.419,0.312,6.395,2.871
			c0.068,0.174,0.121,0.348,0.168,0.523c0.626,2.414-0.651,4.965-3.038,5.869c-2.559,0.973-5.422-0.311-6.393-2.869
			C2206.625,216.834,2206.568,216.658,2206.521,216.483 M2201.952,217.668c0.09,0.342,0.198,0.682,0.324,1.018
			c1.896,4.982,7.495,7.5,12.483,5.604c4.622-1.758,7.169-6.688,5.927-11.469c-0.084-0.34-0.197-0.684-0.323-1.016
			c-1.895-4.986-7.496-7.5-12.479-5.604C2203.262,207.957,2200.714,212.887,2201.952,217.668L2201.952,217.668z"/>
	</g>
	<g display="inline">
		<path d="M2158.631,324.631c-0.433-0.035-0.866-0.127-1.292-0.281c-2.573-0.93-3.902-3.773-2.972-6.348
			c0.777-2.146,2.885-3.432,5.056-3.252c0.431,0.033,0.864,0.127,1.29,0.279c2.576,0.934,3.906,3.775,2.975,6.35
			C2162.909,323.526,2160.802,324.809,2158.631,324.631 M2158.25,329.334L2158.25,329.334c4.334,0.35,8.395-2.26,9.874-6.35
			c1.818-5.014-0.786-10.574-5.804-12.393c-0.814-0.295-1.658-0.479-2.514-0.547c-4.33-0.352-8.395,2.26-9.879,6.348
			c-1.813,5.023,0.79,10.58,5.805,12.395C2156.544,329.082,2157.393,329.266,2158.25,329.334L2158.25,329.334z"/>
	</g>
	<g display="inline">
		<path d="M2267.056,290.115c0.51,0,1.028,0.078,1.54,0.246c2.6,0.85,4.021,3.646,3.171,6.25c-0.683,2.09-2.624,3.418-4.71,3.418
			c-0.51,0-1.027-0.078-1.538-0.246c-2.604-0.85-4.023-3.646-3.175-6.248C2263.027,291.444,2264.969,290.115,2267.056,290.115
			 M2267.056,285.395L2267.056,285.395c-4.199,0-7.896,2.684-9.199,6.676c-0.802,2.457-0.599,5.078,0.571,7.383
			c1.171,2.305,3.169,4.016,5.627,4.818c0.972,0.316,1.982,0.479,3.002,0.479c4.197,0,7.895-2.682,9.197-6.674
			c0.803-2.455,0.6-5.078-0.57-7.385c-1.17-2.305-3.166-4.016-5.621-4.816C2269.087,285.555,2268.077,285.395,2267.056,285.395
			L2267.056,285.395z"/>
	</g>
	<path display="inline" fill="none" stroke="#000000" stroke-width="4.72" stroke-miterlimit="10" d="M2165.981,314.307
		c11.205-7.469,24.953-11.293,39.421-9.957l18.892,1.854c12.394,1.145,24.257-1.494,34.448-6.973"/>
	<circle display="inline" cx="2086.404" cy="288.281" r="4.131"/>
	<path display="inline" fill="none" stroke="#000000" stroke-width="2.36" stroke-miterlimit="10" d="M2293.41,220.129
		c0.302,11.168-3.07,22.508-10.367,32.102l-4.287,5.951c-6.372,8.377-9.753,18.088-10.308,27.848"/>
	<g display="inline">
		<path d="M2291.845,214.709c0.84-0.488,1.932-0.455,2.753,0.172c1.09,0.83,1.3,2.381,0.47,3.473
			c-0.201,0.266-0.445,0.477-0.718,0.637c-0.839,0.49-1.928,0.457-2.754-0.17c-1.086-0.828-1.298-2.383-0.469-3.471
			C2291.328,215.084,2291.575,214.869,2291.845,214.709 M2290.654,212.674L2290.654,212.674c-0.547,0.32-1.021,0.74-1.408,1.246
			c-0.78,1.029-1.116,2.303-0.942,3.584c0.175,1.281,0.837,2.414,1.868,3.197c1.562,1.191,3.673,1.32,5.372,0.328
			c0.547-0.322,1.021-0.742,1.407-1.248c1.611-2.121,1.2-5.162-0.921-6.777C2294.458,211.811,2292.352,211.682,2290.654,212.674
			L2290.654,212.674z"/>
	</g>
	<path display="inline" fill="none" stroke="#000000" stroke-width="4.72" stroke-miterlimit="10" d="M2217.222,218.449
		c7.687,5.195,13.832,12.814,17.164,22.248l9.028,27.314c3.209,9.084,9.034,16.486,16.328,21.662"/>
	<path display="inline" fill="none" stroke="#000000" stroke-width="4.72" stroke-miterlimit="10" d="M2260.451,294.125
		c-14.267-1.939-28.37-6.838-41.418-14.906l-4.679-2.891c-53.113-33.477-110.684-6.004-125.229,10.131"/>
	<g display="inline">
		<path d="M2097.719-374.102c-0.807-2.36,0.277-4.999,2.587-6.083c2.479-1.16,5.427-0.096,6.592,2.382
			c0.082,0.169,0.147,0.339,0.207,0.51c0.806,2.36-0.276,4.999-2.589,6.08c-2.479,1.163-5.43,0.099-6.59-2.38
			C2097.848-373.76,2097.779-373.931,2097.719-374.102 M2093.252-372.577c0.115,0.333,0.249,0.665,0.399,0.989
			c2.266,4.827,8.037,6.916,12.869,4.65c4.477-2.101,6.646-7.206,5.049-11.881c-0.109-0.332-0.248-0.667-0.398-0.989
			c-2.265-4.83-8.039-6.915-12.866-4.65C2093.829-382.36,2091.657-377.252,2093.252-372.577L2093.252-372.577z"/>
	</g>
	<g display="inline">
		<path d="M2268.881-279.643c0.382,0.206,0.743,0.463,1.071,0.775c1.986,1.881,2.066,5.02,0.186,7.006
			c-1.572,1.657-4.018,1.99-5.936,0.959c-0.381-0.203-0.741-0.462-1.07-0.772c-1.988-1.886-2.07-5.022-0.187-7.009
			C2264.516-280.342,2266.961-280.675,2268.881-279.643 M2271.11-283.802L2271.11-283.802c-3.832-2.054-8.598-1.286-11.59,1.871
			c-3.672,3.868-3.509,10.005,0.362,13.68c0.63,0.596,1.33,1.102,2.087,1.507c3.827,2.054,8.597,1.286,11.592-1.867
			c3.672-3.88,3.508-10.013-0.362-13.683C2272.573-282.887,2271.868-283.395,2271.11-283.802L2271.11-283.802z"/>
	</g>
	<g display="inline">
		<path d="M1982.241-300.833c-0.503-0.081-1.002-0.242-1.479-0.489c-2.431-1.255-3.386-4.243-2.129-6.678
			c1.009-1.953,3.138-2.953,5.196-2.619c0.504,0.082,1.002,0.242,1.479,0.489c2.434,1.257,3.387,4.244,2.132,6.676
			C1986.431-301.497,1984.302-300.498,1982.241-300.833 M1981.485-296.173L1981.485-296.173c4.146,0.673,8.224-1.384,10.15-5.116
			c1.185-2.297,1.404-4.916,0.619-7.378c-0.786-2.463-2.485-4.473-4.782-5.658c-0.909-0.467-1.88-0.79-2.887-0.953
			c-4.143-0.673-8.222,1.382-10.147,5.113c-1.186,2.296-1.406,4.918-0.62,7.381c0.785,2.463,2.481,4.471,4.775,5.655
			C1979.507-296.656,1980.478-296.337,1981.485-296.173L1981.485-296.173z"/>
	</g>
	<path display="inline" fill="none" stroke="#000000" stroke-width="4.72" stroke-miterlimit="10" d="M2258.013-273.121
		c-13.257,2.364-27.387,0.372-40.112-6.64l-16.574-9.254c-10.901-6.007-22.83-8.332-34.361-7.387"/>
	<circle display="inline" cx="2163.259" cy="-295.987" r="4.498"/>
	<path display="inline" fill="none" stroke="#000000" stroke-width="2.36" stroke-miterlimit="10" d="M2205.917-356.595
		c-2.695,10.843-8.978,20.869-18.572,28.163l-5.723,4.588c-8.38,6.367-14.233,14.822-17.378,24.078"/>
	<g display="inline">
		<path d="M2205.857-362.234c0.94-0.248,1.983,0.077,2.608,0.9c0.828,1.091,0.615,2.643-0.476,3.472
			c-0.267,0.202-0.559,0.341-0.862,0.422c-0.94,0.247-1.981-0.075-2.609-0.9c-0.825-1.088-0.613-2.642,0.477-3.469
			C2205.26-362.011,2205.553-362.154,2205.857-362.234 M2205.254-364.514L2205.254-364.514c-0.612,0.162-1.182,0.44-1.689,0.823
			c-1.027,0.783-1.691,1.92-1.866,3.201c-0.175,1.282,0.16,2.552,0.944,3.582c1.188,1.565,3.187,2.253,5.089,1.752
			c0.612-0.164,1.184-0.441,1.689-0.826c2.12-1.613,2.538-4.654,0.926-6.777C2209.15-364.329,2207.155-365.017,2205.254-364.514
			L2205.254-364.514z"/>
	</g>
	<path display="inline" fill="none" stroke="#000000" stroke-width="4.72" stroke-miterlimit="10" d="M2108.538-372.945
		c8.055,4.604,14.756,11.739,18.786,20.895l14.74,33.476c3.882,8.816,10.247,15.761,17.909,20.375"/>
	<path display="inline" fill="none" stroke="#000000" stroke-width="4.72" stroke-miterlimit="10" d="M1989.69-304.58
		c14.238,2.136,28.273,7.226,41.21,15.472l4.639,2.955c52.651,34.199,110.592,7.518,125.356-8.416"/>
	<g display="inline">
		<path d="M797.17-392.204c0.604,0,1.219,0.111,1.814,0.346c2.548,1.004,3.798,3.881,2.795,6.429
			c-0.768,1.949-2.636,3.141-4.611,3.141c-0.604,0-1.22-0.111-1.815-0.347c-2.547-1.004-3.799-3.882-2.795-6.427
			C793.326-391.012,795.194-392.204,797.17-392.204 M797.17-396.924L797.17-396.924c-4.003,0-7.537,2.407-9.004,6.133
			c-0.947,2.401-0.902,5.032,0.129,7.403c1.03,2.369,2.923,4.196,5.328,5.144c1.136,0.448,2.328,0.675,3.545,0.675
			c4.004,0,7.538-2.407,9.005-6.132c1.954-4.963-0.494-10.592-5.457-12.548C799.579-396.697,798.385-396.924,797.17-396.924
			L797.17-396.924z"/>
	</g>
	<path display="inline" fill="none" stroke="#000000" stroke-width="4.72" stroke-miterlimit="10" d="M801.833-388.288
		c70.93-22.341,149.707-21.408,224.36,7.999l42.117,15.116c19.303,7.604,39.518,8.899,58.373,4.879"/>
	<rect x="1872.969" y="-48.969" display="inline" fill="none" stroke="#000000" stroke-miterlimit="10" width="29" height="29"/>
	<rect x="1872.969" y="-77.969" display="inline" fill="none" stroke="#000000" stroke-miterlimit="10" width="29" height="29"/>
	<rect x="1872.969" y="-106.969" display="inline" fill="none" stroke="#000000" stroke-miterlimit="10" width="29" height="29"/>
	<rect x="1872.969" y="-135.969" display="inline" fill="none" stroke="#000000" stroke-miterlimit="10" width="29" height="29"/>
	<rect x="1719.636" y="-38.819" display="inline" width="72.75" height="8.7"/>
	<rect x="1719.636" y="-67.819" display="inline" width="72.75" height="8.7"/>
	<rect x="1719.636" y="-96.819" display="inline" width="72.75" height="8.7"/>
	<rect x="1719.636" y="-125.819" display="inline" width="72.75" height="8.7"/>
	<g display="inline">
		<path d="M1338.871-101.298c0-7.417-5.26-9.305-9.575-9.305c-3.911,0-7.821,0.405-11.598,0.809
			c-4.046,0.405-7.957,0.81-12.137,0.81c-12.812,0-17.262-7.957-17.262-16.723v-1.753h7.012v1.753
			c0.675,6.204,4.181,8.092,10.25,8.092c3.641,0,7.012-0.405,10.384-0.674c3.371-0.405,6.878-0.81,10.114-0.81
			c10.788-0.135,14.43,3.506,16.048,9.305h0.27c1.753-5.664,5.529-9.44,15.913-9.305c3.371,0,6.608,0.405,9.979,0.81
			c3.371,0.27,6.878,0.674,10.519,0.674c6.069,0,9.44-2.293,10.114-7.957v-1.888h7.013v1.618c0,9.44-5.124,16.857-17.262,16.857
			c-4.181,0-8.091-0.405-12.002-0.81c-3.776-0.404-7.552-0.809-11.463-0.809c-4.585,0-9.575,1.753-9.575,9.305H1338.871z"/>
	</g>
	<g display="inline">
		<path d="M1342.469-36.954h-3.599c0-7.417-5.26-9.305-9.575-9.305c-3.911,0-7.821,0.405-11.598,0.809
			c-4.046,0.405-7.957,0.81-12.137,0.81c-12.812,0-17.262-7.957-17.262-16.723v-1.753h7.012v1.753
			c0.675,6.204,4.181,8.092,10.25,8.092c3.641,0,7.012-0.405,10.384-0.674c3.371-0.405,6.878-0.81,10.114-0.81
			c10.788-0.135,14.43,3.506,16.048,9.305h0.27"/>
	</g>
	<g display="inline">
		<defs>
			<rect id="SVGID_1_" x="814.802" y="-605.709" width="325.74" height="140.751"/>
		</defs>
		<clipPath id="SVGID_2_">
			<use xlink:href="#SVGID_1_"  overflow="visible"/>
		</clipPath>
		<g clip-path="url(#SVGID_2_)" enable-background="new    ">
			
				<image overflow="visible" width="3200" height="1200" xlink:href="guernica.jpeg"  transform="matrix(0.5027 0 0 0.5027 380.6218 -605.8103)">
			</image>
		</g>
	</g>
</g>
</svg>
