<?xml version="1.0" encoding="utf-8"?>
<!-- Generator: Adobe Illustrator 15.0.0, SVG Export Plug-In . SVG Version: 6.00 Build 0)  -->
<!DOCTYPE svg PUBLIC "-//W3C//DTD SVG 1.1//EN" "http://www.w3.org/Graphics/SVG/1.1/DTD/svg11.dtd">
<svg version="1.1" id="Layer_1" xmlns="http://www.w3.org/2000/svg" xmlns:xlink="http://www.w3.org/1999/xlink" x="0px" y="0px"
	 width="483px" height="212px" viewBox="583 0 483 212" enable-background="new 583 0 483 212" xml:space="preserve">
<g>
	<path fill="#0092FF" d="M1022.635,82.148c3.859,0,7,3.14,7,7s-3.141,7-7,7s-7-3.14-7-7S1018.776,82.148,1022.635,82.148
		 M1022.635,77.148c-6.628,0-12,5.373-12,12s5.372,12,12,12c6.627,0,12-5.373,12-12S1029.262,77.148,1022.635,77.148
		L1022.635,77.148z"/>
</g>
<path fill="none" stroke="#0092FF" stroke-width="5" stroke-miterlimit="10" d="M884.259,41.426c13.899,15,34.34,25,57.1,25h27.504
	c16.899-0.029,32.554,5.57,45.199,14.871"/>
<g>
	<path fill="#0092FF" d="M683.114,110.074c3.859,0,7,3.14,7,7c0,3.859-3.141,7-7,7s-7-3.141-7-7
		C676.114,113.214,679.254,110.074,683.114,110.074 M683.114,105.074c-6.627,0-12,5.374-12,12s5.373,12,12,12
		c6.629,0,12-5.373,12-12S689.742,105.074,683.114,105.074L683.114,105.074z"/>
</g>
<path fill="none" stroke="#0092FF" stroke-width="5" stroke-miterlimit="10" d="M690.281,111.441
	c21.953-16.147,49.131-25.869,78.469-25.817h15.249c39.514,0,75.002-17.362,99.131-43.402"/>
<g>
	<path fill="#0092FF" d="M842.158,134.852L842.158,134.852c1.869,0,3.628,0.729,4.95,2.051c2.729,2.729,2.729,7.17,0.001,9.899
		c-1.322,1.322-3.08,2.05-4.95,2.05s-3.628-0.728-4.95-2.05s-2.05-3.08-2.05-4.95c0-1.869,0.728-3.627,2.051-4.949
		C838.531,135.58,840.288,134.853,842.158,134.852 M842.157,129.852c-3.07,0.001-6.141,1.172-8.483,3.516
		c-4.687,4.686-4.687,12.284,0,16.971c2.343,2.343,5.414,3.514,8.485,3.514c3.07,0,6.143-1.171,8.485-3.514
		c4.686-4.688,4.686-12.285-0.001-16.971C848.3,131.023,845.229,129.852,842.157,129.852L842.157,129.852z"/>
</g>
<path fill="none" stroke="#0092FF" stroke-width="5" stroke-miterlimit="10" d="M842.159,131.855
	c1.996-13.095,7.995-25.776,18.095-35.842l4.806-4.805c13.58-13.58,19.81-31.743,19.152-48.987"/>
<g>
	<path fill="#0092FF" d="M778.271,132.074c1.189,0,2.268,0.703,2.748,1.789c0.668,1.514-0.021,3.289-1.532,3.957
		c-0.387,0.17-0.793,0.256-1.208,0.256c-1.189,0-2.269-0.702-2.749-1.789c-0.667-1.514,0.021-3.289,1.533-3.957
		C777.449,132.16,777.856,132.074,778.271,132.074 M778.271,129.074c-0.809,0-1.631,0.164-2.419,0.512
		c-3.031,1.339-4.404,4.881-3.066,7.912c0.99,2.244,3.188,3.578,5.493,3.578c0.809,0,1.631-0.164,2.419-0.512
		c3.031-1.339,4.403-4.881,3.065-7.912C782.772,130.408,780.574,129.073,778.271,129.074L778.271,129.074z"/>
</g>
<path fill="none" stroke="#0092FF" stroke-width="3" stroke-miterlimit="10" d="M780.463,129.853
	c8.691-16.846,22.973-30.911,41.648-39.119l16.8-7.791c16.321-7.204,33.244-21.016,45.348-41.881"/>
<circle fill="#0092FF" cx="884.259" cy="35.222" r="7"/>
</svg>
