<?xml version="1.0" encoding="utf-8"?>
<!-- Generator: Adobe Illustrator 15.0.0, SVG Export Plug-In . SVG Version: 6.00 Build 0)  -->
<!DOCTYPE svg PUBLIC "-//W3C//DTD SVG 1.1//EN" "http://www.w3.org/Graphics/SVG/1.1/DTD/svg11.dtd">
<svg version="1.1" id="Layer_1" xmlns="http://www.w3.org/2000/svg" xmlns:xlink="http://www.w3.org/1999/xlink" x="0px" y="0px"
	 width="595.275px" height="841.89px" viewBox="0 0 595.275 841.89" enable-background="new 0 0 595.275 841.89"
	 xml:space="preserve">
<g>
	<path d="M300.998,85.001c13.623,0,24.667,11.044,24.667,24.667s-11.044,24.667-24.667,24.667s-24.667-11.044-24.667-24.667
		S287.375,85.001,300.998,85.001 M300.998,74.001c-19.667,0-35.667,16-35.667,35.667s16,35.667,35.667,35.667
		s35.667-16,35.667-35.667S320.665,74.001,300.998,74.001L300.998,74.001z"/>
</g>
<g>
	<path d="M300.998,172.001c13.623,0,24.667,11.044,24.667,24.667s-11.044,24.667-24.667,24.667s-24.667-11.044-24.667-24.667
		S287.375,172.001,300.998,172.001 M300.998,161.001c-19.667,0-35.667,16-35.667,35.667s16,35.667,35.667,35.667
		s35.667-16,35.667-35.667S320.665,161.001,300.998,161.001L300.998,161.001z"/>
</g>
<g>
	<path d="M300.998,259.001c13.623,0,24.667,11.044,24.667,24.667s-11.044,24.667-24.667,24.667s-24.667-11.044-24.667-24.667
		S287.375,259.001,300.998,259.001 M300.998,248.001c-19.667,0-35.667,16-35.667,35.667s16,35.667,35.667,35.667
		s35.667-16,35.667-35.667S320.665,248.001,300.998,248.001L300.998,248.001z"/>
</g>
<path fill="none" stroke="#000000" stroke-width="9" stroke-miterlimit="10" d="M303.665,317.668c0,0,6.113,56.641-15.096,98.277
	c-18.139,35.608-34.237,67.723-34.237,67.723s-22,40.668-22,70.001"/>
</svg>
