<svg width="310" height="128" xmlns="http://www.w3.org/2000/svg">
 <g>
  <title>Layer 1</title>
  <path id="svg_37" d="m291.12802,67.508c-20.79297,8.449 -44.51805,10.09299 -67.69102,3.06799l-30.22693,-9.345c-19.85413,-6.017 -40.1051,-5.674 -58.57703,-0.141" stroke-miterlimit="10" stroke-width="4.72" stroke="#a5d9c9" fill="none"/>
  <circle id="svg_38" r="4.131" cy="122.769" cx="6.131" fill="#a5d9c9" stroke="none"/>
  <path id="svg_39" d="m295.89706,9.827c-5.37805,9.792 -14.01404,17.881 -25.15613,22.477l-6.70398,2.974c-9.72888,4.013 -17.5509,10.689 -22.95592,18.835" stroke-miterlimit="10" stroke-width="2.36" stroke="#a5d9c9" fill="none"/>
  <path id="svg_42" d="m292.65402,40.742c-6.95996,6.13499 -15.87903,10.17 -25.84497,11.027l-36.442,3.13c-9.59802,0.825 -18.22803,4.604 -25.06897,10.362" stroke-miterlimit="10" stroke-width="4.72" stroke="#a5d9c9" fill="none"/>
  <path id="svg_71" d="m290.24399,93.817c-23.99402,0.291 -48.44395,-4.334 -71.92699,-14.443l-8.42297,-3.625c-95.75,-42.2 -183.94299,17.168 -203.979,47.324" stroke-miterlimit="10" stroke-width="4.72" stroke="#a5d9c9" fill="none"/>
  <circle id="svg_2" r="7.5" cy="93.75" cx="297.625" stroke-miterlimit="10" stroke-width="4.7" fill="none" stroke="#a5d9c9"/>
  <circle id="svg_3" r="3.4" cy="6.5" cx="298.25" stroke-miterlimit="10" stroke-width="2" fill="none" stroke="#a5d9c9"/>
  <circle id="svg_3" r="7.5" cy="36.25" cx="297.375" stroke-miterlimit="10" stroke-width="4.7" fill="none" stroke="#a5d9c9"/>
  <circle id="svg_1" r="7.5" cy="63.25" cx="297.375" stroke-miterlimit="10" stroke-width="4.7" fill="none" stroke="#a5d9c9"/>
 </g>
</svg>
