<svg width="325" height="97" xmlns="http://www.w3.org/2000/svg">
 <style>path, circle { stroke:	#86D9D2;}
    .thin,
    .thick {
      stroke-width: 4.72;
      stroke-miterlimit:	10;
      fill: none;
    }
    .thin {
      stroke-width:	2.36;
    }
    .filled {
      fill : #86D9D2
    }</style>
 <g>
  <title>Layer 1</title>
  <path id="svg_1" d="m86.999,78.587c8.755,-6.93999 19.854,-11.045 31.904,-10.96l30.11301,-2.189c10.52399,0.073 20.325,-3.04501 28.46701,-8.455" class="thin" fill="none"/>
  <path id="svg_3" d="m84.145,84.132c-0.896,-0.37801 -1.521,-1.272 -1.51501,-2.30701c0.009,-1.369 1.12701,-2.46999 2.498,-2.458c0.332,0.00201 0.646,0.07 0.938,0.191c0.897,0.379 1.52399,1.271 1.519,2.306c-0.013,1.366 -1.129,2.468 -2.495,2.456c-0.33701,0 -0.654,-0.067 -0.945,-0.188m-0.914,2.175l0,0c0.582,0.243 1.203,0.373 1.841,0.379c1.291,0.008 2.512,-0.487 3.432,-1.396c0.922,-0.908 1.43401,-2.118 1.44,-3.414c0.017,-1.96301 -1.147,-3.729 -2.96101,-4.494c-0.58501,-0.245 -1.20599,-0.374 -1.84399,-0.37701c-2.662,-0.019 -4.85101,2.134 -4.87,4.8c-0.01199,1.974 1.148,3.737 2.96201,4.502l0,0l-0.00002,0.00002l0.00001,-0.00001z" class="filled"/>
  <circle id="svg_4" r="4.132" cy="71.087" cx="6.132" class="filled"/>
  <path id="svg_5" d="m176.69501,53.221c-14.125,2.786 -27.912,8.518 -40.455,17.348l-4.498,3.166c-51.02399,36.582 -110.12898,12.592 -125.61099,-2.646" class="thick" fill="none"/>
  <circle id="svg_7" r="8" cy="51.5" cx="185.429" class="thick" fill="none"/>
  <circle id="svg_9" r="8" cy="11.5" cx="310.929" class="thick" fill="none"/>
  <path id="svg_10" d="m304.87302,17.562c-16.01102,11.916 -36.06302,18.627 -57.58302,17.756l-4.965,-0.207c-18.431,-0.746 -35.789,4.071 -50.45099,12.959" class="thick" fill="none"/>
  <path id="svg_11" d="m192.677,48.676c19.67799,0.688 39.713,-5.115 56.68401,-17.895l3.914,-2.952c14.53499,-10.943 31.31902,-16.773 48.20302,-17.785" class="thick" fill="none"/>
 </g>
</svg>