<svg xmlns="http://www.w3.org/2000/svg" width="350" height="100">
 <style>
  path, circle{
		stroke:	#ffe800;
		fill:	#ffe800;
  }
  .style0,
  .style1,
  .style2,
  .style3 {
		stroke-miterlimit:	10;
		fill:	none;
  }
	.style0{
		stroke-width:	2.36;
	}
	.style1{
		stroke-width:	4.72;
		stroke-linecap:	round;
	}
	.style2{
		stroke-width:	4.72;
	}
	.style3{
		stroke-width:	4.689;
	}
</style>
 
  <title>Layer 1</title>
  
   <path d="m169.728 29.64372c0 0.2 -0 0.5 -0 0.69701c-0.383 2.7 -2.9 4.6 -5.6 4.215c-2.47699 -0.3 -4.3 -2.5 -4.3 -4.89999c0 -0.2 0 -0.5 0 -0.69701c0.38402 -2.7 2.9 -4.6 5.6 -4.217c2.47598 0.3 4.3 2.5 4.3 4.90199m4.718 0l0 0c0 -4.8 -3.6 -8.9 -8.3 -9.57799c-2.55098 -0.4 -5.1 0.3 -7.2 1.85399c-2.06201 1.6 -3.4 3.8 -3.8 6.37801c-0.06198 0.4 -0.1 0.9 -0.1 1.35699c0 4.8 3.6 8.9 8.3 9.57401c5.28198 0.7 10.2 -2.9 10.9 -8.229c0.06702 -0.5 0.1 -0.9 0.1 -1.356l0 0l0 -0.00001z"/>
  
  <path d="m178.98199 20.92172c10.59897 -3.5 22.4 -3.6 33.7 0.59801l2.50801 0.89699c9.86699 3.7 20.1 4.1 29.6 1.8" class="style0"/>
  
   <path d="m175.87099 24.58473c-0.396 0.1 -0.8 0 -1.2 -0.13c-1.27798 -0.5 -1.9 -1.9 -1.5 -3.188c0.32597 -0.9 1.1 -1.5 2 -1.593c0.39601 -0.1 0.8 -0 1.2 0.13301c1.28 0.5 1.9 1.9 1.5 3.18799c-0.326 0.9 -1.1 1.5 -2 1.59001m0.33601 2.336l0 0c1.75899 -0.3 3.2 -1.4 3.9 -3.10501c0.44998 -1.2 0.4 -2.5 -0.1 -3.69499c-0.53601 -1.2 -1.5 -2.1 -2.7 -2.52301c-0.75601 -0.3 -1.6 -0.4 -2.4 -0.256c-1.75702 0.3 -3.2 1.4 -3.9 3.10501c-0.92897 2.5 0.3 5.3 2.8 6.22099c0.75699 0.3 1.6 0.4 2.4 0.25301l0 0z"/>
  
  <path d="m168.64301 35.61673c4.42 8.2 6.4 17.8 5 27.65601l-1.05098 7.16999c-1.345 9.5 0.4 18.8 4.5 26.8" class="style1"/>
  
   <path d="m339.229 51.36473c0.65799 0 1.3 0.1 2 0.40999c2.51199 1.1 3.7 4 2.6 6.517c-0.81 1.9 -2.6 3 -4.6 2.987c-0.65698 0 -1.3 -0.1 -2 -0.409c-2.51398 -1.1 -3.7 -4 -2.6 -6.519c0.81 -1.9 2.6 -3 4.5 -2.98599m0 -4.72101l0 0c-3.85699 0 -7.3 2.3 -8.9 5.82901c-2.121 4.9 0.1 10.6 5 12.72798c1.22403 0.5 2.5 0.8 3.8 0.80001c3.86099 0 7.3 -2.3 8.9 -5.832c2.12003 -4.9 -0.1 -10.6 -5 -12.726c-1.22296 -0.5 -2.5 -0.8 -3.8 -0.79901l0 0l-0.00003 0.00001z"/>
  
  <path d="m332.30603 55.70472c-23.854 -2.6 -47.6 -10.1 -69.7 -22.978l-7.92599 -4.61c-45.694 -26.6 -98.3 -30.4 -144.8 -14.882c-23.23898 7.8 -44.9 20.4 -63.4 37.4" class="style2"/>
  
   
    
     <path d="m10.64201 17.97673c2.23799 0 4.3 1.5 4.8 3.79399c0.647 2.7 -1 5.4 -3.7 6c-0.395 0.1 -0.8 0.1 -1.2 0.14301c-2.237 0 -4.3 -1.5 -4.8 -3.79401c-0.646 -2.7 1 -5.4 3.7 -6c0.395 -0.1 0.8 -0.1 1.2 -0.14299m0 -4.68901c-0.76801 0 -1.5 0.1 -2.3 0.27301c-5.17299 1.3 -8.4 6.5 -7.1 11.664c1.05899 4.3 4.9 7.4 9.4 7.375c0.76801 0 1.5 -0.1 2.3 -0.272c2.507 -0.6 4.6 -2.2 6 -4.36301s1.742 -4.8 1.1 -7.304c-1.054 -4.3 -4.9 -7.4 -9.4 -7.373l0 0l0.00001 0z"/>
    
   
   <path d="m18.018 25.21872c67.119 31.7 145.2 41.5 223 22.595l4.27802 -1.32599c19.43201 -4.7 38.9 -3.3 56.4 3" class="style3"/>
  
  <circle cx="46.5" cy="50.6" r="4.1"/>
 
</svg>