<svg width="312" height="105" xmlns="http://www.w3.org/2000/svg">
 <g>
  <title>Layer 1</title>
  <circle id="svg_3" r="7.5" cy="42.25" cx="299.375" stroke-miterlimit="10" stroke-width="4.7" fill="none" stroke="#e71939"/>
  <path id="svg_70" d="m292.461,41.907c-23.99301,0.341 -48.314,5.607 -71.52101,16.332l-8.32401,3.848c-94.60501,44.706 -184.331,-12.32 -205.15299,-41.938" stroke-miterlimit="10" stroke-width="4.72" stroke="#e71939" fill="none"/>
  <circle id="svg_1" r="7.5" cy="42.75" cx="70.375" stroke-miterlimit="10" stroke-width="4.7" fill="none" stroke="#e71939"/>
  <path id="svg_60" d="m123.02306,62.33899c10.135,4.705 21.88305,6.113 33.58398,3.21501l107.00099,-27.307c10.21701,-2.528 20.47107,-1.777 29.651,1.586" stroke-miterlimit="10" stroke-width="2.36" stroke="#e71939" fill="none"/>
  <path id="svg_63" d="m75.817,45.64299c8.04504,4.616 17.59399,6.788 27.52405,5.634l162.15297,-18.243c9.56796,-1.111 18.78003,0.863 26.63696,5.13799" stroke-miterlimit="10" stroke-width="4.72" stroke="#e71939" fill="none"/>
  <path id="svg_68" d="m94.32201,15.664c18.62502,12.528 41.51001,18.99 65.63501,16.856l75.35498,-6.899c20.66504,-1.827 40.42006,2.652 57.36598,11.85" stroke-miterlimit="10" stroke-width="4.72" stroke="#e71939" fill="none"/>
  <circle id="svg_69" r="4.13" cy="17.347" cx="6.13" fill="#e71939"/>
  <circle id="svg_2" r="7.5" cy="11.75" cx="88.625" stroke-miterlimit="10" stroke-width="4.7" fill="none" stroke="#e71939"/>
  <circle id="svg_3" r="3" cy="60.5" cx="119.75" stroke-miterlimit="10" stroke-width="2" fill="none" stroke="#e71939"/>
 </g>
</svg>