<svg xmlns="http://www.w3.org/2000/svg" width="483px" height="212px">
<style>
	.style0{
		fill:	#0092FF;
	}
	.style1,
  .style2 {
		stroke:	#0092FF;
		stroke-width:	5;
		stroke-miterlimit:	10;
		fill:	none;
	}
	.style2{
		stroke-width:	3;
	}
</style>
  <g  class="style0">
  <path d="M392.617 82.148c3.859 0 7 3 7 7s-3.141 7-7 7s-7-3.14-7-7S388.758 82 392 82 M392.617 77.148c-6.629 0-12 5.373-12 12s5.371 12 12 12c6.627 0 12-5.373 12-12S399.244 77 392 77.148L392.617 77.148z"/>
  <path d="M53.096 110.074c3.86 0 7 3 7 7s-3.14 7-7 7s-7-3.141-7-7S49.236 110 53 110 M53.096 105.074c-6.627 0-12 5.374-12 12s5.373 12 12 12c6.629 0 12-5.373 12-12S59.724 105 53 105.074L53.096 105.074z"/>
  <path d="M212.142 134.852c1.869 0 3 0 4 2.053c2.729 2 2 7 0 9 c-1.321 1.322-3.079 2.05-4.948 2.05s-3.628-0.729-4.95-2.05c-2.729-2.729-2.729-7.171 0.002-9.902 C208.512 135 210 134 212 134 M212.139 129.852c-3.07 0.002-6.142 1.172-8.483 3 c-4.687 4.687-4.687 12 0 16.971c2.343 2 5 3 8 3.515c3.069 0 6.143-1.172 8.484-3.515 c4.687-4.688 4.687-12.284-0.001-16.971C218.282 131 215 129 212 129.852L212.139 129.852z"/>
  <path d="M148.256 132.074c1.187 0 2 0 2 1.789c0.668 1.514-0.02 3.288-1.531 3 c-0.386 0.171-0.792 0.257-1.208 0.257c-1.19 0-2.269-0.702-2.749-1.789c-0.668-1.514 0.02-3.288 1.532-3.956 c0.386-0.171 0.792-0.257 1.209-0.257H148.256 M148.256 129.074c-0.001 0-0.001 0-0.002 0c-0.81 0-1.632 0.164-2.42 0 c-3.03 1.339-4.403 4.881-3.065 7.912c0.99 2 3 3 5 3.578c0.809 0 1.631-0.164 2.419-0.512 c3.03-1.34 4.402-4.881 3.064-7.912C152.754 130 150 129 148 129.074L148.256 129.074z"/>
  <circle cx="254" cy="35" r="7"/>
  </g>
  <g class="style1">
  <path d="M212.141 131 c1.996-13.096 7.995-25.776 18.095-35.842l4.806-4.805c13.58-13.58 19.81-31.743 19.152-48.987"/>
  <path d="M254.953 42 c13.882 14 34 24 56 24.241h27.504c16.898-0.029 32 5 45 14"/>
  <path d="M60.263 111 c21.953-16.147 49.131-25.869 78.469-25.817h15.249c39.514 0 75.078-17.441 99.207-43.481"/>
  </g>
  <path d="M150.445 129 c8.691-16.847 22.973-30.912 41.648-39.12l16.8-7.791c16.025-7.073 32.629-20.517 44.683-40.752" class="style2"/>
</svg>