<svg xmlns="http://www.w3.org/2000/svg" width="483" height="212">
    <style>
        * {
            stroke:#266801;
            fill:none;
            stroke-width:8;
        }
        .bg {
            stroke-width:4;
        }
        .root {
            stroke:none;
            fill:#266801;
        }
    </style>

  <circle class="root" cx="8" cy="205" r="7"/>
  <circle cx="191" cy="144" r="12"/>
  <circle cx="334" cy="68" r="12"/>
  <circle cx="467" cy="17" r="12"/>
  <circle class="bg" cx="234" cy="65" r="6"/>
  <path d="m455.914001 20.753c-38.848999 12 -80.8 16.3 -123.8 11.198l-15.436005 -1.829c-88.977997 -11.1 -173.6 18.9 -235.6 73.878c-30.917 27.7 -56.2 61.9 -73.5 100"/>
  <path d="m181.901993 151.852005c-12.645996 9.3 -28.3 14.9 -45.2 14.869995l-65.390984 0c-22.760002 0 -43.2 10 -57.1 25"/>
  <path d="m325.084015 75.316002c-29.570007 23.9 -67.2 38.3 -108.3 38.256996l-75.55101 0c-35.679985 0 -67.6 10 -95.1 28"/>
  <path class="bg" d="m229.570007 69.617996c-14.755005 11.9 -33.5 19 -53.9 18.967003l-40.772995 0c-17.840004 0 -38.9 5.8 -58.4 20"/>
</svg>
