<?xml version="1.0" encoding="utf-8"?>
<!-- Generator: Adobe Illustrator 15.0.0, SVG Export Plug-In . SVG Version: 6.00 Build 0)  -->
<!DOCTYPE svg PUBLIC "-//W3C//DTD SVG 1.1//EN" "http://www.w3.org/Graphics/SVG/1.1/DTD/svg11.dtd">
<svg version="1.1" id="Layer_1" xmlns="http://www.w3.org/2000/svg" xmlns:xlink="http://www.w3.org/1999/xlink" x="0px" y="0px"
	 width="505.475px" height="230.989px" viewBox="128.603 394.596 505.475 230.989"
	 enable-background="new 128.603 394.596 505.475 230.989" xml:space="preserve">
<g>
	<path fill="#2F4430" d="M332.848,541.025c4.643,0,8.4,3.761,8.4,8.398c0,4.641-3.76,8.399-8.4,8.399
		c-4.639,0-8.397-3.761-8.397-8.399C324.448,544.786,328.209,541.025,332.848,541.025 M332.848,533.025
		c-9.042,0-16.397,7.355-16.397,16.398s7.355,16.399,16.397,16.399c9.043,0,16.4-7.356,16.4-16.399S341.891,533.025,332.848,533.025
		L332.848,533.025z"/>
</g>
<g>
	<path fill="#2F4430" d="M476.078,464.803c4.639,0,8.397,3.763,8.397,8.4c0,4.64-3.761,8.398-8.397,8.398
		c-4.641,0-8.4-3.76-8.4-8.398C467.678,468.562,471.438,464.803,476.078,464.803 M476.078,456.803c-9.043,0-16.4,7.357-16.4,16.4
		s7.357,16.398,16.4,16.398s16.397-7.355,16.397-16.398S485.121,456.803,476.078,456.803L476.078,456.803z"/>
</g>
<g>
	<path fill="#2F4430" d="M608.939,414.128c4.639,0,8.398,3.76,8.398,8.4c0,4.64-3.762,8.398-8.398,8.398
		c-4.643,0-8.4-3.76-8.4-8.398C600.539,417.888,604.299,414.128,608.939,414.128 M608.939,406.128c-9.043,0-16.4,7.357-16.4,16.4
		c0,9.043,7.357,16.398,16.4,16.398s16.398-7.355,16.398-16.398C625.339,413.485,617.982,406.128,608.939,406.128L608.939,406.128z"
		/>
</g>
<path fill="none" stroke="#2F4430" stroke-width="8" stroke-miterlimit="10" d="M597.76,426.236
	c-38.849,12.039-80.811,16.31-123.84,11.199l-15.435-1.83c-88.979-10.564-173.394,18.974-235.167,74.378
	c-30.917,27.729-56.164,61.938-73.475,100.844"/>
<path fill="none" stroke="#2F4430" stroke-width="8" stroke-miterlimit="10" d="M323.748,557.335
	c-12.646,9.347-28.292,14.87-45.24,14.87h-65.391c-22.76,0.001-43.171,9.96-57.117,25.764"/>
<path fill="none" stroke="#2F4430" stroke-width="8" stroke-miterlimit="10" d="M466.93,480.799
	c-29.571,23.93-67.244,38.257-108.293,38.257h-75.551c-35.68,0-68.809,10.822-96.283,29.369"/>
<circle fill="#2F4430" cx="149.846" cy="610.827" r="7"/>
<path fill="none" stroke="#2F4430" stroke-width="4" stroke-miterlimit="10" d="M371.416,475.102
	c-14.755,11.866-33.512,18.966-53.942,18.966H276.7c-17.84,0-34.404,5.409-48.142,14.685"/>
<g>
	<path fill="#2F4430" d="M376.194,466.939c2.317,0,4.198,1.881,4.198,4.198c0,2.32-1.881,4.2-4.198,4.2c-2.32,0-4.2-1.88-4.2-4.2
		C371.994,468.82,373.874,466.939,376.194,466.939 M376.194,462.939c-4.521,0-8.2,3.679-8.2,8.198c0,4.521,3.679,8.2,8.2,8.2
		c4.521,0,8.198-3.679,8.198-8.2C384.394,466.618,380.716,462.939,376.194,462.939L376.194,462.939z"/>
</g>
</svg>
