<svg xmlns="http://www.w3.org/2000/svg" xmlns:xlink="http://www.w3.org/1999/xlink" version="1.1" x="0px" y="0px" width="505.475px" height="230.989px" viewBox="128.603 394.596 505.475 230.989" enable-background="new 128.603 394.596 505.475 230.989" xml:space="preserve">
<style>
    .style0{
		fill:	#2F4430;
	}
	.style1{
		stroke:	#2F4430;
		stroke-width:	8;
		stroke-miterlimit:	10;
		fill:	none;
	}
	.style2{
		stroke:	#2F4430;
		stroke-width:	4;
		stroke-miterlimit:	10;
		fill:	none;
	}
</style>
<g>
	<path d="M332.848 541.025c4.643 0 8 3 8 8.398c0 4.641-3.76 8.399-8.4 8 c-4.639 0-8.397-3.761-8.397-8.399C324.448 544 328 541 332 541 M332.848 533 c-9.042 0-16.397 7.355-16.397 16.398s7.355 16 16 16.399c9.043 0 16.4-7.356 16.4-16.399S341.891 533 332 533 L332.848 533.025z" class="style0"/>
</g>
<g>
	<path d="M476.078 464.803c4.639 0 8 3 8 8.4c0 4.64-3.761 8.398-8.397 8 c-4.641 0-8.4-3.76-8.4-8.398C467.678 468 471 464 476 464 M476.078 456.803c-9.043 0-16.4 7.357-16.4 16 s7.357 16 16 16.398s16.397-7.355 16.397-16.398S485.121 456 476 456.803L476.078 456.803z" class="style0"/>
</g>
<g>
	<path d="M608.939 414.128c4.639 0 8 3 8 8.4c0 4.64-3.762 8.398-8.398 8 c-4.643 0-8.4-3.76-8.4-8.398C600.539 417 604 414 608 414 M608.939 406.128c-9.043 0-16.4 7.357-16.4 16 c0 9 7 16 16 16.398s16.398-7.355 16.398-16.398C625.339 413 617 406 608 406.128L608.939 406.128z" class="style0"/>
</g>
<path d="M597.76 426 c-38.849 12.039-80.811 16.31-123.84 11.199l-15.435-1.83c-88.979-10.564-173.394 18.974-235.167 74 c-30.917 27.729-56.164 61.938-73.475 100" class="style1"/>
<path d="M323.748 557 c-12.646 9.347-28.292 14.87-45.24 14.87h-65.391c-22.76 0.001-43.171 9.96-57.117 25" class="style1"/>
<path d="M466.93 480 c-29.571 23.93-67.244 38.257-108.293 38.257h-75.551c-35.68 0-68.809 10.822-96.283 29" class="style1"/>
<circle cx="149" cy="610" r="7" class="style0"/>
<path d="M371.416 475 c-14.755 11.866-33.512 18.966-53.942 18.966H276.7c-17.84 0-34.404 5.409-48.142 14" class="style2"/>
<g>
	<path d="M376.194 466.939c2.317 0 4 1 4 4.198c0 2.32-1.881 4.2-4.198 4.2c-2.32 0-4.2-1.88-4.2-4.2 C371.994 468 373 466 376 466 M376.194 462.939c-4.521 0-8.2 3.679-8.2 8.198c0 4 3 8 8 8 c4.521 0 8.198-3.679 8.198-8.2C384.394 466 380 462 376 462.939L376.194 462.939z" class="style0"/>
</g>
</svg>