<?xml version="1.0"?>

<!DOCTYPE svg PUBLIC '-//W3C//DTD SVG 1.0//EN' 'http://www.w3.org/TR/2001/REC-SVG-20010904/DTD/svg10.dtd'>
<svg fill-opacity="1" xmlns:xlink="http://www.w3.org/1999/xlink" color-rendering="auto" color-interpolation="auto" stroke="black" text-rendering="auto" stroke-linecap="square" stroke-miterlimit="10" stroke-opacity="1" shape-rendering="auto" fill="black" stroke-dasharray="none" font-weight="normal" stroke-width="1" xmlns="http://www.w3.org/2000/svg" font-family="&apos;Dialog&apos;" font-style="normal" stroke-linejoin="miter" font-size="12" stroke-dashoffset="0" image-rendering="auto">
  <!--Unicode Character 'ANCHOR' (U+2693)-->
  <defs id="genericDefs" />
  <g>
    <g>
      <path d="M140.3438 399.9375 Q136.6875 389.8125 127.6875 384.1875 Q120.9375 389.25 111.9375 390.6562 Q102.9375 392.0625 97.3125 392.0625 Q86.0625 392.0625 75.6562 382.7812 Q65.25 373.5 57.9375 343.125 L51.1875 315 L40.2188 336.9375 L36 331.3125 L43.875 280.125 L81.5625 317.8125 L81.5625 324 L59.0625 312.75 L70.3125 341.4375 Q81 364.5 87.4688 371.25 Q93.9375 378 101.25 377.4375 Q106.875 378 115.3125 375.75 Q123.75 373.5 128.8125 367.3125 Q133.875 361.125 133.875 351 L133.875 243 L96.75 243 L96.75 228.375 L133.875 228.375 L133.875 181.6875 Q133.875 178.3125 130.7812 174.0938 Q127.6875 169.875 126.2812 165.0938 Q124.875 160.3125 124.875 156.0938 Q124.875 151.875 127.125 146.5312 Q129.375 141.1875 133.875 137.8125 Q138.375 134.4375 144 134.4375 Q149.625 134.4375 154.125 137.8125 Q158.625 141.1875 160.875 146.5312 Q163.125 151.875 163.125 156.0938 Q163.125 160.3125 161.7188 165.0938 Q160.3125 169.875 157.2188 174.0938 Q154.125 178.3125 154.125 181.6875 L154.125 228.375 L191.25 228.375 L191.25 243 L154.125 243 L154.125 351 Q154.125 361.125 159.1875 367.3125 Q164.25 373.5 172.6875 375.75 Q181.125 378 186.75 377.4375 Q194.0625 378 200.5312 371.25 Q207 364.5 217.6875 341.4375 L228.9375 312.75 L206.4375 324 L206.4375 317.8125 L244.125 280.125 L252 331.3125 L247.7812 336.9375 L236.8125 315 L230.0625 343.125 Q222.75 373.5 212.3438 382.7812 Q201.9375 392.0625 190.6875 392.0625 Q185.0625 392.0625 176.0625 390.6562 Q167.0625 389.25 160.3125 384.1875 Q151.3125 389.8125 147.6562 399.9375 L140.3438 399.9375 ZM144 169.875 Q152.4375 163.6875 152.4375 157.5 Q152.4375 153.5625 150.1875 151.3125 Q147.9375 149.0625 144 149.0625 Q140.0625 149.0625 137.8125 151.3125 Q135.5625 153.5625 135.5625 157.5 Q135.5625 163.6875 144 169.875 Z" stroke="none" />
    </g>
  </g>
</svg>
